<?xml version="1.0" encoding="utf-8"?>
<!-- Generator: Adobe Illustrator 28.1.0, SVG Export Plug-In . SVG Version: 6.00 Build 0)  -->
<svg version="1.1" id="Calque_2" xmlns="http://www.w3.org/2000/svg" xmlns:xlink="http://www.w3.org/1999/xlink" x="0px" y="0px"
	 viewBox="0 0 607.2 259.8" style="enable-background:new 0 0 607.2 259.8;" xml:space="preserve">
<style type="text/css">
	.st0{fill:#E1000F;}
	.st1{fill:#FFFFFF;}
	.st2{fill:#000091;}
	.st3{fill:#9D9D9C;}
</style>
<polygon class="st0" points="380,22.7 342.4,44.3 342.4,87.6 378,148.8 382,148.8 417.5,87.6 417.5,44.3 "/>
<polygon class="st1" points="390.7,59.7 404.9,59.7 404.9,51.5 380,37.2 355,51.5 355,80.3 380,94.8 404.9,80.3 404.9,72.1 
	390.7,72.1 "/>
<polygon class="st2" points="390.7,72.1 390.7,59.7 380,53.5 369.2,59.7 369.2,72.1 380,78.3 "/>
<g>
	<path d="M363.8,187.3l4.5,3.5c-2.6,3.6-6.8,5.8-12,5.8c-8.9,0-15.1-6.9-15.1-15c0-8.1,6.1-15,15.1-15c5.1,0,9.3,2.3,12,5.8
		l-4.5,3.6c-1.6-2.3-4.2-3.9-7.5-3.9c-5.4,0-9.1,4.2-9.1,9.6s3.8,9.6,9.1,9.6C359.6,191.2,362.2,189.6,363.8,187.3z"/>
	<path d="M400.4,181.6c0,8.1-6.1,15-15,15s-15.1-6.9-15.1-15c0-8.1,6.1-15,15.1-15C394.4,166.6,400.4,173.4,400.4,181.6z
		 M394.6,181.6c0-5.5-3.8-9.6-9.1-9.6c-5.4,0-9.1,4.2-9.1,9.6s3.8,9.6,9.1,9.6C390.7,191.2,394.6,187,394.6,181.6z"/>
	<path d="M405,167.4h7.4l12.7,20.5v-20.5h5.8v28.4h-7.4l-12.7-20.5v20.5H405V167.4z"/>
	<path d="M439.5,188c1.7,2.2,4,3.5,6.3,3.5c2.3,0,3.7-1.3,3.7-3.3c0-5.3-12.9-3.8-12.9-13.4c0-4.5,3.8-8.2,9.1-8.2
		c4.3,0,7.5,1.9,10,4.8l-4.2,3.8c-1.7-2.1-3.6-3.6-5.7-3.6c-2,0-3.4,1.3-3.4,3c0,5.1,12.9,3.7,12.9,13.4c-0.1,5.4-4.2,8.5-9.5,8.5
		c-4.8,0-8-1.8-10.5-4.7L439.5,188z"/>
	<path d="M460.9,167.4h16.6v4.8h-10.8v6.7h9.1v4.8h-9.1v7.2h10.8v4.8h-16.6V167.4z"/>
	<path d="M485,167.4h5.8v28.4H485V167.4z"/>
	<path d="M498,167.4h5.8v23.1h10.8v5.3H498V167.4z"/>
	<path d="M519.9,167.4h5.8v23.1h10.8v5.3h-16.6V167.4z"/>
	<path d="M541.9,167.4h16.6v4.8h-10.8v6.7h9.1v4.8h-9.1v7.2h10.8v4.8h-16.6V167.4z"/>
	<path d="M564,167.4h8.7c6.2,0,10.1,3.2,10.1,8.5c0,3.5-1.7,6-4.6,7.4l8.9,12.6h-6.7l-7.6-11.4h-2.9v11.4h-5.8v-28.5H564z
		 M569.7,172.2v7.4h3.3c2.4,0,3.9-1.5,3.9-3.8c0-2.1-1.5-3.6-3.9-3.6H569.7z"/>
	<path d="M342.4,208.6h7.4l12.7,20.5v-20.5h5.8v28.4H361l-12.7-20.5v20.5h-5.8V208.6z"/>
	<path d="M392.5,208.6h5.8v17.3c0,7.5-4.4,12-11.6,12c-7.2,0-11.5-4.4-11.5-12v-17.3h5.8v17.8c0,3.8,2.1,6.1,5.8,6.1
		c3.6,0,5.7-2.2,5.7-6.1V208.6z"/>
	<path d="M405.1,208.6h7.2l7,11.9l7-11.9h7.2v28.4h-5.8v-20.4l-6.3,10.6h-4.1l-6.3-10.6v20.4H405v-28.4H405.1z"/>
	<path d="M440.8,208.6h16.6v4.8h-10.9v6.7h9.2v4.8h-9.2v7.3h10.9v4.8h-16.6V208.6z M446.5,206.1l4.6-5.5h5.9l-5.3,5.5H446.5z"/>
	<path d="M464.6,208.6h8.7c6.2,0,10.1,3.2,10.1,8.5c0,3.5-1.7,6-4.6,7.4l9,12.6H481l-7.6-11.5h-2.9v11.5h-5.9V208.6z M470.3,213.3
		v7.4h3.3c2.4,0,3.9-1.5,3.9-3.8c0-2.1-1.5-3.6-3.9-3.6H470.3z"/>
	<path d="M492.2,208.6h5.8v28.4h-5.8V208.6z"/>
	<path d="M535.6,239.1c0.6,0,1.5-0.1,2-0.3v4.8c-0.9,0.3-1.8,0.5-3.1,0.5c-3.2,0-6.1-1.3-9-3.8l-3.4-3.1c-1.3,0.3-2.5,0.5-3.9,0.5
		c-9,0-15.2-7-15.2-15.1c0-8.1,6.1-15.1,15.2-15.1c9,0,15.1,7,15.1,15.1c0,4.7-2.1,9.1-5.6,11.9l1.7,1.6
		C531.8,238.3,533.8,239.1,535.6,239.1z M527.6,222.8c0-5.5-3.8-9.6-9.2-9.6c-5.4,0-9.2,4.2-9.2,9.6c0,5.4,3.8,9.6,9.2,9.6
		C523.8,232.4,527.6,228.2,527.6,222.8z"/>
	<path d="M555.9,208.6h5.8v17.3c0,7.5-4.4,12-11.6,12s-11.5-4.4-11.5-12v-17.3h5.8v17.8c0,3.8,2.1,6.1,5.8,6.1
		c3.6,0,5.7-2.2,5.7-6.1V208.6z"/>
	<path d="M567.9,208.6h16.6v4.8h-10.9v6.7h9.2v4.8h-9.2v7.3h10.9v4.8h-16.6V208.6z"/>
</g>
<rect x="22.7" y="22.7" class="st1" width="103.9" height="37.8"/>
<g>
	<g>
		<g>
			<path d="M22.8,79.3h8.7c6.3,0,10.1,3.2,10.1,8.5c0,3.4-1.7,6-4.6,7.4l8.9,12.6h-6.9l-7.6-11.5h-3v11.5h-5.8V79.3z M28.5,84.3v7.1
				h3.3c2.4,0,3.9-1.3,3.9-3.6c0-2.2-1.4-3.5-3.9-3.5H28.5z"/>
			<path d="M49.6,79.3h16.6v4.9H55.3v6.6h9.2v4.9h-9.2v7.1h10.8v4.9H49.6V79.3z M55.2,76.9l4.6-5.5h5.9l-5.3,5.5H55.2z"/>
			<path d="M72.8,79.3h9.4c6.3,0,10.1,3.2,10.1,8.5c0,5.2-3.8,8.5-10.1,8.5h-3.6v11.5h-5.8V79.3z M78.6,84.3v7.1h3.9
				c2.4,0,3.9-1.3,3.9-3.6c0-2.2-1.5-3.5-3.9-3.5H78.6z"/>
			<path d="M113.8,79.3h5.8v17.3c0,7.5-4.4,11.9-11.5,11.9c-7.1,0-11.5-4.5-11.5-11.9V79.3h5.8v17.8c0,3.8,2.2,6.1,5.8,6.1
				c3.5,0,5.7-2.2,5.7-6.1V79.3z"/>
			<path d="M126.8,79.3h8.1c5.9,0,9.5,2.9,9.5,7.7c0,2.3-1.1,4.3-3,5.6c3,1.3,4.7,3.8,4.7,6.7c0,5.2-4,8.4-10.6,8.4h-8.7V79.3z
				 M132.5,84.3v6.2h2.4c2.2,0,3.5-1.1,3.5-3.1c0-1.9-1.3-3.1-3.5-3.1H132.5z M132.5,95.4v7.4h3.3c2.7,0,4.3-1.4,4.3-3.8
				c0-2.4-1.6-3.7-4.3-3.7H132.5z"/>
			<path d="M151.9,79.3h5.8v23.2h10.8v5.2h-16.6V79.3z"/>
			<path d="M173.6,79.3h5.8v28.4h-5.8V79.3z"/>
			<path d="M217.2,109.8c0.6,0,1.4-0.1,2-0.3v4.9c-0.9,0.4-1.7,0.5-3,0.5c-3.2,0-6.1-1.3-8.9-3.7l-3.4-3c-1.2,0.3-2.5,0.5-3.9,0.5
				c-9,0-15.1-6.9-15.1-15c0-8.1,6.1-15,15.1-15c8.9,0,15.1,6.9,15.1,15c0,4.8-2.1,9.1-5.6,11.9l1.7,1.6
				C213.4,109,215.3,109.8,217.2,109.8z M209.1,93.6c0-5.4-3.8-9.6-9.1-9.6c-5.4,0-9.2,4.2-9.2,9.6c0,5.4,3.8,9.6,9.2,9.6
				C205.3,103.2,209.1,99,209.1,93.6z"/>
			<path d="M237.4,79.3h5.8v17.3c0,7.5-4.4,11.9-11.5,11.9c-7.1,0-11.5-4.5-11.5-11.9V79.3h5.8v17.8c0,3.8,2.2,6.1,5.8,6.1
				c3.5,0,5.7-2.2,5.7-6.1V79.3z"/>
			<path d="M250.3,79.3h16.6v4.9h-10.8v6.6h9.2v4.9h-9.2v7.1h10.8v4.9h-16.6V79.3z"/>
			<path d="M22.8,120.4h16.6v4.9H28.5v6.6h9.2v4.9h-9.2v12h-5.8V120.4z"/>
			<path d="M44.4,120.4h8.7c6.3,0,10.1,3.2,10.1,8.5c0,3.4-1.7,6-4.6,7.4l8.9,12.6h-6.9l-7.6-11.5h-3v11.5h-5.8V120.4z M50.2,125.3
				v7.1h3.3c2.4,0,3.9-1.3,3.9-3.6c0-2.2-1.4-3.5-3.9-3.5H50.2z"/>
			<path d="M79.6,120.4h7.6L98,148.8h-6.1l-2.7-7.4H77.7l-2.7,7.4h-6.1L79.6,120.4z M87.3,136.5l-3.9-10.7l-3.9,10.7H87.3z"/>
			<path d="M102.3,120.4h7.4l12.7,20.4v-20.4h5.8v28.4h-7.4l-12.7-20.4v20.4h-5.8V120.4z"/>
			<path d="M156.3,140.3l4.6,3.5c-2.2,3-5.6,5.1-9.8,5.6l-3.5,5.9h-5.1l3.6-6c-7.4-1.3-12.3-7.6-12.3-14.8c0-8.1,6.1-15,15.1-15
				c5.2,0,9.4,2.3,12,5.8l-4.6,3.5c-1.6-2.3-4.2-3.9-7.4-3.9c-5.4,0-9.2,4.2-9.2,9.6s3.8,9.6,9.2,9.6
				C152.1,144.2,154.7,142.6,156.3,140.3z"/>
			<path d="M172.9,120.4h7.6l10.8,28.4H185l-2.7-7.4h-11.4l-2.7,7.4h-6.1L172.9,120.4z M180.5,136.5l-3.9-10.7l-3.9,10.7H180.5z"/>
			<path d="M195.6,120.4h5.8v28.4h-5.8V120.4z"/>
			<path d="M210.9,141c1.7,2.2,4,3.5,6.3,3.5c2.3,0,3.7-1.2,3.7-3.3c0-5.1-13-3.9-13-13.4c0-4.5,3.7-8.2,9.1-8.2
				c4.3,0,7.6,1.9,10,4.8l-4.2,3.8c-1.7-2.2-3.5-3.5-5.7-3.5c-2,0-3.3,1.3-3.3,3c0,5.1,13,3.9,13,13.5c-0.1,5.3-4.2,8.5-9.4,8.5
				c-4.8,0-8-1.7-10.6-4.8L210.9,141z"/>
			<path d="M232.8,120.4h16.6v4.9h-10.8v6.6h9.2v4.9h-9.2v7.1h10.8v4.9h-16.6V120.4z"/>
		</g>
		<g>
			<path d="M115.3,227.3c0.8,0,1.4,0.6,1.1,2.1l-3.6,0.8C113.5,228.6,114.5,227.3,115.3,227.3 M117.3,233.1h-0.7
				c-0.9,1.1-1.9,1.9-2.8,1.9c-1,0-1.5-0.6-1.5-1.9c0-0.5,0.1-1.1,0.2-1.6l5.8-1.9c1.1-2.7-0.2-3.8-1.8-3.8c-2.7,0-5.8,4.6-5.8,8.6
				c0,1.8,0.9,2.8,2.2,2.8C114.4,237.2,116,235.6,117.3,233.1 M116.2,224.7l4.1-3.8v-0.4h-2.2l-2.5,4.2H116.2z M103.7,227.4h1.9
				l-3,8.3c-0.3,0.7,0.1,1.4,0.8,1.4c1.7,0,4.5-1.7,5.5-4h-0.5c-0.8,0.8-2.3,1.9-3.5,2.1l2.8-7.8h2.9l0.4-1.2h-2.8l1.1-3H108l-2,3
				l-2.4,0.3V227.4z M101.1,227c0.2-0.8-0.3-1.2-0.7-1.2c-1.7,0-3.6,1.5-4.4,3.6h0.5c0.5-0.8,1.5-1.6,2.3-1.8l-3.2,8.3
				c-0.3,0.8,0.3,1.2,0.7,1.2c1.6,0,3.4-1.5,4.2-3.6H100c-0.5,0.8-1.5,1.6-2.3,1.8L101.1,227z M101.7,222.8c0.8,0,1.4-0.6,1.4-1.4
				c0-0.8-0.6-1.4-1.4-1.4c-0.8,0-1.4,0.6-1.4,1.4C100.3,222.2,100.9,222.8,101.7,222.8 M83.3,235.6c-0.4,0.9,0,1.5,0.9,1.5
				c0.6,0,0.8-0.1,1-0.8l2.2-5.9c1-1.3,3.1-2.6,4-2.6c0.6,0,0.5,0.5,0.1,1.3l-3.4,6.5c-0.3,0.6,0.1,1.4,0.8,1.4
				c1.7,0,3.6-1.5,4.4-3.6h-0.5c-0.5,0.8-1.5,1.6-2.3,1.8l2.9-5.9c0.4-0.8,0.6-1.5,0.6-2c0-1-0.5-1.6-1.5-1.6
				c-1.4,0-2.9,1.6-4.6,3.6v-1.5c0-1.1-0.4-2.1-1.4-2.1c-0.6,0-1.2,0.5-1.8,1.3v0.2c1.1-0.1,1.6,1.6,0.8,3.3L83.3,235.6z
				 M83.3,228.4c0.4-1.4,0.2-2.5-0.9-2.5c-1.2,0-1.5,0.9-2.8,3.6v-1.5c0-1.1-0.4-2.1-1.4-2.1c-1.2,0-2.2,1.8-3,3.6h0.5
				c0.6-0.8,1.1-1.3,1.5-1.3c0.5,0,0.8,0.8,0,2.5l-2.3,5c-0.4,0.9,0,1.5,0.9,1.5c0.6,0,0.8-0.1,1-0.8l2.2-5.9
				c0.6-0.8,1.2-1.4,1.9-2.2H83.3z M70.5,227.3c0.8,0,1.4,0.6,1.1,2.1l-3.6,0.8C68.6,228.6,69.6,227.3,70.5,227.3 M72.5,233.1h-0.7
				c-0.9,1.1-1.9,1.9-2.8,1.9c-1,0-1.5-0.6-1.5-1.9c0-0.5,0.1-1.1,0.2-1.6l5.8-1.9c1.1-2.7-0.2-3.8-1.8-3.8c-2.7,0-5.8,4.6-5.8,8.6
				c0,1.8,0.9,2.8,2.2,2.8C69.5,237.2,71.1,235.6,72.5,233.1 M58.8,227.4h1.9l-3,8.3c-0.3,0.7,0.1,1.4,0.8,1.4c1.7,0,4.5-1.7,5.5-4
				h-0.5c-0.8,0.8-2.3,1.9-3.5,2.1l2.8-7.8h2.9l0.4-1.2h-2.8l1.1-3h-1.1l-2,3l-2.4,0.3V227.4z M48.3,233.9c0-2.6,2.9-6,4.5-6
				c0.4,0,0.7,0,1,0.1l-1.7,4.4c-1,1.2-2.4,2.6-3.1,2.6C48.6,235,48.3,234.7,48.3,233.9 M57.1,225.3l-0.9-0.1l-1,1H55
				c-4.8,0-8.9,5.3-8.9,9.2c0,1.1,0.7,1.7,1.7,1.7c1.2,0,2.4-1.8,3.8-3.6l-0.1,0.7c-0.2,1.9,0.4,3,1.4,3c1.2,0,2.2-1.8,3-3.6h-0.5
				c-0.6,0.8-1.1,1.3-1.5,1.3c-0.4,0-0.8-0.8,0-2.5L57.1,225.3z M47,228.4c0.4-1.4,0.2-2.5-0.9-2.5c-1.2,0-1.5,0.9-2.8,3.6v-1.5
				c0-1.1-0.4-2.1-1.4-2.1c-1.2,0-2.2,1.8-3,3.6h0.5c0.6-0.8,1.1-1.3,1.5-1.3c0.5,0,0.8,0.8,0,2.5l-2.3,5c-0.4,0.9,0,1.5,0.9,1.5
				c0.6,0,0.8-0.1,1-0.8l2.2-5.9c0.6-0.8,1.2-1.4,1.9-2.2H47z M31,236.7l0.2-0.6c-2.8-0.5-3.1-0.5-2-3.5l1.1-3.1h3.1
				c1.4,0,1.4,0.6,1.2,2.1h0.8l1.8-5h-0.8c-0.7,1.2-1.2,2.1-2.7,2.1h-3l1.6-4.4c0.5-1.4,0.8-1.7,2.7-1.7h1.3c1.9,0,2.2,0.5,2.2,2.5
				h0.8l0.6-3.4H28.3l-0.2,0.6c2.2,0.5,2.4,0.7,1.4,3.5l-2.5,6.8c-1,2.9-1.5,3.1-4,3.5l-0.2,0.6H31z"/>
			<path d="M87.4,201.3c0.8,0,1.4,0.6,1.1,2.1l-3.6,0.8C85.5,202.5,86.6,201.3,87.4,201.3 M89.4,207.1h-0.7
				c-0.9,1.1-1.9,1.9-2.8,1.9c-1,0-1.5-0.6-1.5-1.9c0-0.5,0.1-1.1,0.2-1.6l5.8-1.9c1.1-2.7-0.2-3.8-1.8-3.8c-2.7,0-5.8,4.6-5.8,8.6
				c0,1.8,0.9,2.8,2.2,2.8C86.4,211.1,88.1,209.6,89.4,207.1 M88.2,198.7l4.1-3.8v-0.4h-2.2l-2.5,4.2H88.2z M75.8,201.3h1.9l-3,8.3
				c-0.3,0.7,0.1,1.4,0.8,1.4c1.7,0,4.5-1.7,5.5-4h-0.5c-0.8,0.8-2.3,1.9-3.5,2.1l2.8-7.8h2.9l0.4-1.2h-2.8l1.1-3h-1.1l-2,3
				l-2.4,0.3V201.3z M73.2,200.9c0.2-0.8-0.3-1.2-0.7-1.2c-1.7,0-3.6,1.5-4.4,3.6h0.5c0.5-0.8,1.5-1.6,2.3-1.8l-3.2,8.3
				c-0.3,0.8,0.3,1.2,0.7,1.2c1.6,0,3.4-1.5,4.2-3.6h-0.5c-0.5,0.8-1.5,1.6-2.3,1.8L73.2,200.9z M73.8,196.8c0.8,0,1.4-0.6,1.4-1.4
				c0-0.8-0.6-1.4-1.4-1.4c-0.8,0-1.4,0.6-1.4,1.4C72.4,196.2,73,196.8,73.8,196.8 M62.7,209.2l5.8-15.2l-0.2-0.2l-3.6,0.4v0.4
				l0.7,0.5c0.6,0.5,0.4,1-0.1,2.5l-4.5,12c-0.3,0.6,0.1,1.4,0.8,1.4c1.7,0,3.4-1.5,4.2-3.6h-0.5C64.7,208.2,63.5,209.1,62.7,209.2
				 M51.6,207.8c0-2.6,2.9-6,4.5-6c0.4,0,0.7,0,1,0.1l-1.7,4.4c-1,1.2-2.4,2.6-3.1,2.6C51.9,208.9,51.6,208.6,51.6,207.8
				 M60.4,199.3l-0.9-0.1l-1,1h-0.2c-4.8,0-8.9,5.3-8.9,9.2c0,1.1,0.7,1.7,1.7,1.7c1.2,0,2.4-1.8,3.8-3.6l-0.1,0.7
				c-0.2,1.9,0.4,3,1.4,3c1.2,0,2.2-1.8,3-3.6h-0.5c-0.6,0.8-1.1,1.3-1.5,1.3c-0.4,0-0.8-0.8,0-2.5L60.4,199.3z M39.2,213.1
				c0-1.1,1.1-1.8,2.6-2.4c0.5,0.3,1.3,0.5,2.3,0.9c1.6,0.5,2.2,0.7,2.2,1.2c0,1-1.7,1.8-4.1,1.8C40.1,214.6,39.2,214.1,39.2,213.1
				 M43.5,206.4c-0.7,0-1-0.6-1-1.3c0-1.9,1-4.6,2.6-4.6c0.7,0,1,0.6,1,1.3C46.1,203.6,45.1,206.4,43.5,206.4 M48,212.1
				c0-1.3-1.2-1.8-3.1-2.4c-1.7-0.5-2.4-0.6-2.4-1.2c0-0.4,0.4-1,1.1-1.3c2.7-0.1,4.5-2.6,4.5-4.7c0-0.4-0.1-0.8-0.2-1.1h2.3
				l0.4-1.2h-3.7c-0.4-0.3-1-0.4-1.5-0.4c-2.9,0-4.8,2.5-4.8,4.6c0,1.6,1,2.5,2.2,2.8c-1.4,0.6-2.1,1.3-2.1,2.1
				c0,0.5,0.2,0.8,0.6,1.1c-3.1,0.9-4.4,2-4.4,3.4c0,1.4,1.9,2,4.2,2C44.8,215.9,48,213.8,48,212.1 M33.4,203.2
				c1.4,0,1.4,0.6,1.2,2.1h0.8l1.8-5h-0.8c-0.7,1.2-1.2,2.1-2.7,2.1h-3l1.5-4.2c0.5-1.4,0.8-1.7,2.7-1.7h1.3c1.9,0,2.2,0.5,2.2,2.5
				h0.8l0.6-3.4H28.3l-0.2,0.6c2.2,0.5,2.4,0.7,1.4,3.5l-2.5,6.8c-1,2.9-1.5,3.1-4,3.5l-0.2,0.6h12.8l2.3-3.6H37
				c-1.5,1.4-3.3,2.7-5.9,2.7c-3.4,0-3.1-0.1-2-3.3l1.2-3.3H33.4z M35.1,194.4l4.1-2.8v-0.4h-2.5l-2.3,3.2H35.1z"/>
			<path d="M86.1,175.2c0.8,0,1.4,0.6,1.1,2.1l-3.6,0.8C84.2,176.4,85.2,175.2,86.1,175.2 M88,181h-0.7c-0.9,1.1-1.9,1.9-2.8,1.9
				c-1,0-1.5-0.6-1.5-1.9c0-0.5,0.1-1.1,0.2-1.6l5.8-1.9c1.1-2.7-0.2-3.8-1.8-3.8c-2.7,0-5.8,4.6-5.8,8.6c0,1.8,0.9,2.8,2.2,2.8
				C85.1,185,86.7,183.5,88,181 M86.9,172.6l4.1-3.8v-0.4h-2.2l-2.5,4.2H86.9z M74.9,175.3h1.5l-3,8.3c-0.3,0.7,0.1,1.4,0.8,1.4
				c1.7,0,4.5-1.7,5.5-4h-0.5c-0.8,0.8-2.3,1.9-3.5,2.1l2.8-7.8h2.9l0.4-1.2h-2.8l1.1-3h-1.1l-2,3l-2,0.3V175.3z M73.4,176.2
				c0.4-1.4,0.2-2.5-0.9-2.5c-1.2,0-1.5,0.9-2.8,3.6v-1.5c0-1.1-0.4-2.1-1.4-2.1c-1.2,0-2.2,1.8-3,3.6h0.5c0.6-0.8,1.1-1.3,1.5-1.3
				c0.5,0,0.8,0.8,0,2.5l-2.3,5c-0.4,0.9,0,1.5,0.9,1.5c0.6,0,0.8-0.1,1-0.8l2.2-5.9c0.6-0.8,1.2-1.4,1.9-2.2H73.4z M60.6,175.2
				c0.8,0,1.4,0.6,1.1,2.1l-3.6,0.8C58.8,176.4,59.8,175.2,60.6,175.2 M62.6,181h-0.7c-0.9,1.1-1.9,1.9-2.8,1.9
				c-1,0-1.5-0.6-1.5-1.9c0-0.5,0.1-1.1,0.2-1.6l5.8-1.9c1.1-2.7-0.2-3.8-1.8-3.8c-2.7,0-5.8,4.6-5.8,8.6c0,1.8,0.9,2.8,2.2,2.8
				C59.7,185,61.3,183.5,62.6,181 M48.5,183.3c-0.6,0-1.4-0.5-1.4-1c0-0.1,0.3-0.8,0.6-1.6l0.9-2.5c1-1.2,2.5-2.5,3.4-2.5
				c0.5,0,0.9,0.3,0.9,1.1C52.9,179.2,50.7,183.3,48.5,183.3 M55,176c0-1.7-0.6-2.3-1.8-2.3c-1.5,0-2.8,1.5-4.2,3.4l3.5-9.2
				l-0.2-0.2l-3.6,0.4v0.4l0.7,0.5c0.6,0.5,0.4,1-0.1,2.5l-3.8,9.7c-0.3,0.7-0.6,1.5-0.6,1.8c0,1,1.4,1.9,2.6,1.9
				C50.3,185,55,179.9,55,176 M43.7,174.9c0.2-0.8-0.3-1.2-0.7-1.2c-1.7,0-3.6,1.5-4.4,3.6h0.5c0.5-0.8,1.5-1.6,2.3-1.8l-3.2,8.3
				c-0.3,0.8,0.3,1.2,0.7,1.2c1.6,0,3.4-1.5,4.2-3.6h-0.5c-0.5,0.8-1.5,1.6-2.3,1.8L43.7,174.9z M44.3,170.7c0.8,0,1.4-0.6,1.4-1.4
				c0-0.8-0.6-1.4-1.4-1.4c-0.8,0-1.4,0.6-1.4,1.4C42.9,170.1,43.5,170.7,44.3,170.7 M35.9,169.4h-7.6l-0.2,0.6
				c2.2,0.5,2.4,0.7,1.4,3.5l-2.5,6.8c-1,2.9-1.5,3.1-4,3.5l-0.2,0.6h11.6l2.5-4.5h-0.9c-1.4,1.6-3.1,3.5-5.7,3.5
				c-1.9,0-2.2-0.3-1.1-3.3l2.5-6.8c1-2.9,1.5-3.1,4-3.5L35.9,169.4z"/>
		</g>
		<g>
			<path class="st2" d="M65.6,56c0.4-0.4,0.8-0.8,1.2-1.3h0c0.8-0.9,1.5-1.7,2.4-2.4c0.3-0.2,0.5-0.5,0.8-0.6
				c0.1-0.1,0.1-0.2,0.1-0.3c-0.4,0.1-0.6,0.4-0.9,0.6c-0.1,0-0.1-0.1-0.1-0.1c0.3-0.2,0.5-0.4,0.8-0.6c0,0,0,0,0,0
				c-0.1,0-0.1-0.1-0.1-0.1c-0.9-0.1-1.6,0.5-2.3,1.1c-0.1,0.1-0.3-0.1-0.4-0.1c-1.1,0.4-1.9,1.3-2.9,1.7c0-0.1,0-0.1,0-0.1
				c-0.4,0.1-0.8,0.4-1.3,0.5c-0.6,0.1-1.2,0.1-1.8,0.1c-0.9,0.1-1.7,0.3-2.6,0.5c0,0-0.1,0-0.1,0c-0.5,0.1-0.9,0.3-1.3,0.5
				c0,0,0,0,0,0c0,0-0.1,0.1-0.1,0.1c-0.2,0.2-0.3,0.3-0.5,0.4c-0.4,0.2-0.8,0.6-1.2,0.9c0,0-0.1,0-0.1,0c-0.4,0.4-0.8,0.7-1.1,1.1
				c0,0-0.1,0-0.2,0c0,0,0,0,0,0c0,0,0,0,0-0.1c0.1-0.1,0.1-0.2,0.2-0.3c0.1-0.1,0.1-0.2,0.2-0.3c0.1-0.1,0.2-0.3,0.3-0.4
				c0,0,0-0.1,0-0.1c0,0-0.1,0-0.1,0c0.4-0.3,0.8-0.6,1.2-0.9c0,0,0,0,0,0c0,0-0.1,0-0.1-0.1c0-0.1,0.1-0.1,0.1-0.2c0,0,0,0,0-0.1
				c0,0,0,0-0.1-0.1c-0.1,0.1-0.2,0.1-0.3,0.2c-0.2,0.2-0.3,0.5-0.6,0.5c0,0-0.1,0-0.1,0c0,0-0.1,0-0.1,0c0,0,0,0,0,0c0,0,0,0,0,0
				c0,0,0,0,0,0c0,0,0,0,0-0.1c0,0,0,0,0-0.1c0,0,0,0,0,0c0,0,0-0.1,0.1-0.1c0,0,0,0,0-0.1c0-0.1,0.1-0.1,0.1-0.2c0,0,0-0.1,0-0.1
				c0,0,0.1-0.1,0.1-0.1c0-0.1,0-0.1-0.1-0.1c0.1-0.2,0.3-0.3,0.5-0.4h0c0.3-0.1,0.5-0.3,0.8-0.5c0,0,0.1-0.1,0.1-0.1
				c-0.4,0.1-0.8,0.3-1.1,0.6c0,0-0.1,0-0.1,0.1c0,0-0.1,0-0.2-0.1c0,0,0,0,0-0.1c0.1-0.1,0.3-0.2,0.4-0.4c0.1,0,0.1,0,0.1,0.1
				c2.3-1.8,5.4-1.4,8.1-2.3c0.2-0.1,0.4-0.3,0.6-0.4c0.4-0.1,0.6-0.5,1.1-0.7c0.6-0.4,1-0.9,1.2-1.6c0-0.1-0.1-0.1-0.1-0.1
				c-0.9,1-2,1.8-3.1,2.4c-1.5,0.8-3.1,0.6-4.7,0.9c0.1-0.1,0.2-0.1,0.4-0.1c0-0.2,0.1-0.3,0.3-0.4c0.1,0,0.1,0,0.2,0
				c0.1,0,0.1-0.1,0.1-0.1c0.1,0,0.4-0.1,0.3-0.1c-0.2-0.3-0.6,0.2-1,0c0.1-0.1,0.1-0.4,0.2-0.4c0.1,0,0.2,0,0.3,0
				c0-0.1,0.1-0.3,0.1-0.3c1.1-0.6,2.1-1.1,3.1-1.7c-0.2,0-0.4,0.2-0.6,0.1c0.1,0,0-0.2,0.1-0.2c0.8-0.2,1.4-0.6,2.2-0.9
				c-0.3,0-0.5,0.2-0.8,0c0.1-0.1,0.2-0.2,0.4-0.2c0-0.1,0-0.1,0-0.2c0-0.1,0.1-0.1,0.1-0.1c-0.1,0-0.1-0.1-0.1-0.1
				c0.1-0.1,0.3-0.1,0.4-0.2c-0.1,0-0.2,0-0.2-0.1c0.2-0.3,0.6-0.4,0.9-0.4c-0.1-0.1-0.3,0-0.3-0.1c0-0.1,0.1-0.1,0.1-0.1
				c-0.1,0-0.1,0-0.1,0c-0.1-0.1-0.1-0.2-0.1-0.3c0.4-0.5,0.4-1.1,0.6-1.7c-0.1,0-0.1,0-0.1-0.1c-0.7,0.8-1.9,1.1-2.9,1.4
				c-0.1,0-0.3,0-0.4,0c-0.4,0.1-0.9,0.1-1.2-0.1c-0.3-0.1-0.4-0.4-0.7-0.6c-0.6-0.4-1.1-0.6-1.8-0.9c-1.8-0.6-3.6-0.9-5.5-0.8
				c0.8-0.4,1.7-0.5,2.5-0.7c1.2-0.4,2.4-0.8,3.6-0.7c-0.2-0.1-0.5,0-0.7,0c-1-0.1-2,0.2-3.1,0.4c-0.7,0.1-1.4,0.4-2.1,0.6
				c-0.4,0.1-0.6,0.6-1.1,0.5c0,0,0-0.1,0-0.2c0.7-0.9,1.6-1.7,2.7-1.8c1.3-0.2,2.5,0,3.8,0.1c0.9,0.1,1.8,0.3,2.7,0.5
				c0.4,0,0.4,0.6,0.7,0.6c0.4,0.1,0.9,0,1.3,0.3c0-0.1-0.1-0.3,0-0.4c0.3-0.3,0.6,0.1,0.9-0.1c0.6-0.4-0.5-1-0.8-1.5
				c0-0.1,0.1-0.1,0.1-0.1c0.6,0.5,1,1.1,1.7,1.4c0.4,0.1,1.2,0.4,1.1-0.1c-0.4-0.8-1.1-1.4-1.6-2.1c0-0.1,0-0.2,0-0.3
				c-0.1,0-0.1-0.1-0.2-0.1c0-0.1,0-0.2,0-0.3c-0.3-0.1-0.2-0.4-0.4-0.6c-0.2-0.4-0.1-0.9-0.2-1.3c-0.1-0.4-0.2-0.8-0.3-1.2
				c-0.2-1.2-0.5-2.3-0.6-3.4c-0.1-1.4,0.8-2.4,1.4-3.6c0.5-0.9,1.1-1.7,2-2.3c0.2-0.9,0.8-1.6,1.4-2.3c0.6-0.7,1.5-1.1,2.2-1.4
				c1-0.4,1.9-0.7,1.9-0.7h-49v37.8h34.7c1.4-1,2.7-1.4,4.6-2.4C62.9,57.6,64.9,56.7,65.6,56z M54.6,50.9c-0.1,0-0.4,0.1-0.4-0.1
				c0.1-0.4,0.6-0.4,0.9-0.5c0.1-0.1,0.4-0.2,0.5-0.1c0.1,0.2,0.4,0.1,0.5,0.3C55.7,50.9,55.1,50.7,54.6,50.9z M43.7,49.3
				c0,0-0.1-0.1-0.1-0.1c0.9-1.2,1.6-2.4,2.3-3.6c0.9-0.5,1.7-1.2,2.4-2c1.2-1.3,2.5-2.4,4-3.1c0.6-0.2,1.3-0.1,1.9,0.1
				c-0.2,0.3-0.6,0.2-0.9,0.4c-0.1,0-0.1,0-0.2-0.1c0.1-0.1,0.1-0.1,0.1-0.2c-0.7,0.8-1.7,1.1-2.3,2.1c-0.4,0.7-0.7,1.6-1.6,1.9
				c-0.3,0.1,0.1-0.2-0.1-0.1C47,45.7,45.4,47.4,43.7,49.3z M49.6,44.6c-0.1,0.1-0.2,0.2-0.2,0.3c-0.1,0.1-0.1,0.2-0.3,0.3
				c-0.1,0-0.1,0-0.1-0.1c0.1-0.3,0.3-0.6,0.6-0.6C49.6,44.5,49.6,44.5,49.6,44.6z M53,55.3c0,0.1-0.1,0.1-0.2,0.2
				c0.1,0,0.2,0.1,0.1,0.1c-0.2,0.2-0.3,0.3-0.5,0.4c0,0-0.1,0-0.1,0c-0.1,0.1-0.2,0.2-0.3,0.2c-0.1,0.1-0.5,0-0.4-0.1
				c0.2-0.2,0.3-0.3,0.5-0.5c0.1-0.1,0.2-0.2,0.3-0.3c0-0.1,0.1-0.1,0.2-0.2C52.6,55.2,53,55.2,53,55.3z M51.7,54.7
				C51.7,54.7,51.7,54.7,51.7,54.7c-0.3,0.2-0.6,0.4-0.8,0.6c-0.3,0.2-0.6,0.3-0.9,0.5c0,0,0,0,0,0c0,0-0.1-0.1-0.1,0
				c-0.3,0.1-0.5,0.3-0.7,0.5c0,0-0.1,0.1-0.1,0.1c0,0,0,0,0,0c0,0,0,0,0,0c0,0-0.1,0.1-0.1,0.1c0,0,0,0,0,0c0,0,0,0,0,0
				c-0.1,0.1-0.1,0.1-0.2,0.2c0,0,0,0.1-0.1,0.1c0,0-0.2,0-0.2-0.1c0,0,0,0,0,0c0,0-0.1,0-0.1,0.1c0,0-0.1,0-0.1,0.1c0,0,0,0,0,0
				c0,0,0,0-0.1,0c-0.1,0.1-0.2,0.1-0.3,0.2c-0.1,0.1-0.3,0.3-0.4,0.4c0,0,0,0,0,0c0,0,0,0,0,0c0,0,0,0,0,0c0,0,0,0,0,0c0,0,0,0,0,0
				c0,0,0,0,0,0.1c0,0,0,0,0,0c0,0,0,0-0.1,0c0,0,0,0,0,0c0,0,0,0,0,0c0,0,0-0.1-0.1-0.1c0,0,0,0,0,0c0,0,0,0,0,0
				c0.1-0.1,0.2-0.2,0.2-0.3c0,0,0,0,0,0c0,0,0-0.1,0.1-0.1c0-0.1,0.1-0.1,0.1-0.2c0,0,0,0,0-0.1c0.1-0.1,0.2-0.2,0.2-0.3
				c0,0,0,0,0,0c0,0,0,0,0,0c0-0.1,0.1-0.1,0.1-0.2c0,0,0.1-0.1,0.1-0.1c0,0,0,0,0,0c0,0,0,0,0,0c0,0,0,0,0,0c0-0.1,0-0.1,0.1-0.2
				c0,0,0,0,0,0c0,0,0,0,0,0c0,0,0-0.1,0-0.1l0,0c0,0,0,0,0,0c0,0,0-0.1,0-0.1c0,0,0,0,0,0c0.1-0.1,0.2-0.3,0.3-0.4c0,0,0,0,0,0
				c-0.1,0.1-0.2,0.2-0.3,0.2c-0.1,0.1-0.2,0-0.1-0.1c0.1,0,0.1-0.1,0.2-0.1c0,0,0,0,0,0c0.1-0.1,0.2-0.3,0.4-0.4
				c0.1-0.1,0.2-0.1,0.2-0.2c0,0,0,0,0,0c0-0.1,0.1-0.1,0.2-0.2c0,0,0,0,0,0c0.7-0.7,1.8-0.6,2.7-1.1c0.4-0.1,0.8,0.1,1.1,0
				c0.2,0,0.4,0,0.6,0.1C52.9,53.9,52.3,54.3,51.7,54.7z M53.1,49.7c-0.1-0.1,0.2,0,0.3-0.1c-0.2,0-0.4,0-0.6,0
				c-0.1,0-0.1-0.1-0.1-0.1c-0.4,0.1-0.8,0.2-1.1,0.3c-0.5,0.1-0.9,0.5-1.5,0.6c-0.8,0.3-1.4,0.9-2.3,1.2c-0.1,0-0.1-0.1-0.1-0.1
				c0.1-0.2,0.4-0.3,0.5-0.5c0-0.1,0-0.1-0.1-0.1c0.6-0.8,1.4-1.2,2.1-1.9c0-0.1,0-0.1,0-0.2c0.2-0.3,0.6-0.4,0.7-0.8
				c0.1-0.2,0.4-0.5,0.7-0.6c-0.1-0.1-0.2-0.1-0.2-0.2c-0.3,0-0.6,0.1-0.9-0.1c0.1-0.1,0.3-0.2,0.4-0.3c-0.1,0-0.1,0-0.2-0.1
				c-0.1-0.1,0.1-0.3,0.4-0.4c0.3-0.1,0.6-0.1,0.9-0.3c-0.5-0.1-1.1,0.1-1.6-0.1c0.4-0.9,0.9-1.7,1.8-2.1c0.1,0,0.2,0,0.2,0.1
				c0,0.4-0.2,0.6-0.6,0.7c0.6,0.1,1.1,0.1,1.7,0.4c-0.1,0.1-0.2,0.1-0.3,0.1c0.4,0.2,0.8,0.1,1.1,0.4c-0.2,0.2-0.4,0-0.6,0
				c2.2,0.6,4.6,1.1,6.4,2.6c-1.6,0.8-3.2,1.1-4.9,1.5c-0.2,0-0.4,0-0.6-0.1c0,0.1,0,0.2-0.1,0.2c-0.3,0-0.5,0-0.7,0.1
				C53.8,49.9,53.4,50,53.1,49.7z"/>
			<g>
				<path class="st0" d="M126.6,22.7H85.9c0,0,0.1,0,0.4,0.2c0.3,0.2,0.8,0.4,1,0.5c0.5,0.3,1,0.6,1.4,1.1c0.1,0.2,0.4,0.6,0.2,0.9
					c-0.1,0.4-0.2,0.9-0.6,1.1c-0.4,0.2-1,0.2-1.5,0.1c-0.3,0-0.6-0.1-0.9-0.1c1.1,0.4,2.1,0.9,2.8,1.9c0.1,0.1,0.4,0.2,0.6,0.2
					c0.1,0,0.1,0.1,0.1,0.2c-0.1,0.1-0.3,0.2-0.2,0.4c0.1,0,0.1,0,0.2,0c0.4-0.1,0.3-0.9,0.8-0.6c0.4,0.2,0.5,0.7,0.3,1.1
					c-0.3,0.3-0.6,0.5-0.9,0.7c-0.1,0.1-0.1,0.4,0,0.5c0.2,0.3,0.3,0.6,0.4,0.9c0.2,0.5,0.3,1.1,0.5,1.6c0.3,1.1,0.6,2.1,0.5,3.2
					c0,0.6-0.3,1.1-0.1,1.6c0.1,0.6,0.5,1,0.8,1.5c0.3,0.4,0.6,0.7,0.8,1.1c0.4,0.7,1.2,1.4,0.9,2.3c-0.2,0.5-1,0.4-1.5,0.7
					c-0.4,0.4-0.1,0.9,0.1,1.3c0.4,0.6-0.4,1.1-0.9,1.3c0.1,0.2,0.4,0.1,0.5,0.3c0.1,0.4,0.4,0.6,0.2,0.9c-0.3,0.4-1.1,0.6-0.7,1.3
					c0.3,0.5,0.1,1.1-0.1,1.6c-0.2,0.6-0.8,0.9-1.3,1.1c-0.4,0.1-0.9,0.1-1.4,0.1c-0.1-0.1-0.3-0.1-0.4-0.1
					c-1.2-0.1-2.4-0.5-3.6-0.5c-0.4,0.1-0.7,0.1-1,0.3c-0.3,0.2-0.6,0.5-0.9,0.8c0,0,0,0,0,0c-0.1,0.1-0.1,0.1-0.2,0.2
					c0,0-0.1,0.1-0.1,0.1c0,0,0,0-0.1,0.1c-0.2,0.3-0.4,0.5-0.6,0.8c0,0,0,0,0,0.1c0,0,0,0.1-0.1,0.1c-0.2,0.4-0.4,0.9-0.5,1.3
					c-0.5,1.6-0.3,3,0.1,3.4c0.1,0.1,2.4,0.8,3.9,1.5c0.7,0.3,1.3,0.6,1.7,0.9h39.9V22.7z"/>
			</g>
			<path class="st3" d="M88.3,36.5c0.3,0.1,0.7,0.1,0.7,0.2c-0.1,0.6-1,0.7-1.4,1.3h-0.2c-0.2,0.1-0.1,0.5-0.4,0.5
				c-0.2-0.1-0.4,0-0.6,0.1c0.3,0.3,0.6,0.5,1.1,0.4c0.1,0,0.2,0.1,0.2,0.3c0,0,0.1,0,0.1-0.1c0.1,0,0.1,0,0.1,0.1v0.3
				c-0.2,0.3-0.6,0.1-0.9,0.2c0.6,0.1,1.1,0.1,1.6,0c0.4-0.1,0-0.9,0.3-1.2c-0.1,0,0-0.2-0.1-0.2c0.1-0.1,0.3-0.4,0.4-0.4
				c0.1,0,0.4-0.1,0.4-0.2c0-0.1-0.3-0.2-0.2-0.4c0.4-0.3,0.8-0.7,0.6-1.1c-0.1-0.2-0.6-0.2-1-0.4c-0.4-0.1-0.8,0-1.2,0.1
				c-0.4,0-0.7,0.2-1.1,0.3c-0.5,0.1-0.9,0.4-1.4,0.7c0.5-0.2,1-0.3,1.6-0.4C87.6,36.5,87.9,36.4,88.3,36.5z"/>
		</g>
	</g>
</g>
</svg>
