<?xml version="1.0" encoding="UTF-8"?>
<svg id="Calque_1" xmlns="http://www.w3.org/2000/svg" version="1.1" xmlns:xlink="http://www.w3.org/1999/xlink" viewBox="0 0 621.81 621.81">
  <!-- Generator: Adobe Illustrator 30.1.0, SVG Export Plug-In . SVG Version: 2.1.1 Build 136)  -->
  <defs>
    <style>
      .st0 {
        fill: url(#linear-gradient2);
      }

      .st1 {
        fill: url(#linear-gradient10);
      }

      .st2 {
        fill: url(#linear-gradient21);
      }

      .st3 {
        fill: url(#linear-gradient1);
      }

      .st4 {
        fill: url(#linear-gradient9);
      }

      .st5 {
        fill: url(#linear-gradient18);
      }

      .st6 {
        fill: url(#linear-gradient8);
      }

      .st7 {
        fill: url(#linear-gradient11);
      }

      .st8 {
        font-family: Baskerville, Baskerville;
        font-size: 56.18px;
        letter-spacing: .05em;
      }

      .st8, .st9 {
        fill: #010101;
      }

      .st10 {
        fill: url(#linear-gradient16);
      }

      .st11 {
        fill: url(#linear-gradient19);
      }

      .st12 {
        fill: url(#linear-gradient12);
      }

      .st13 {
        fill: url(#Nouvelle_nuance_de_dégradé_3);
      }

      .st14 {
        fill: url(#linear-gradient7);
      }

      .st15 {
        fill: url(#linear-gradient20);
      }

      .st16 {
        fill: url(#linear-gradient4);
      }

      .st17 {
        fill: url(#linear-gradient14);
      }

      .st18 {
        fill: url(#linear-gradient5);
      }

      .st19 {
        fill: url(#linear-gradient3);
      }

      .st20 {
        fill: url(#linear-gradient15);
      }

      .st21 {
        fill: url(#linear-gradient17);
      }

      .st22 {
        fill: url(#linear-gradient6);
      }

      .st23 {
        fill: url(#linear-gradient13);
      }

      .st24 {
        fill: url(#linear-gradient);
      }
    </style>
    <linearGradient id="linear-gradient" x1="314.87" y1="430.37" x2="315.31" y2="488.3" gradientUnits="userSpaceOnUse">
      <stop offset="0" stop-color="#fef8ce"/>
      <stop offset=".07" stop-color="#ec9e28"/>
      <stop offset=".28" stop-color="#eed688"/>
      <stop offset=".31" stop-color="#efda90"/>
      <stop offset=".48" stop-color="#faefbc"/>
      <stop offset=".57" stop-color="#fef8ce"/>
      <stop offset=".76" stop-color="#c3932e"/>
      <stop offset="1" stop-color="#fef8ce"/>
    </linearGradient>
    <linearGradient id="Nouvelle_nuance_de_dégradé_3" data-name="Nouvelle nuance de dégradé 3" x1="234.59" y1="375.73" x2="379.28" y2="527.78" gradientUnits="userSpaceOnUse">
      <stop offset=".03" stop-color="#c3932e"/>
      <stop offset=".49" stop-color="#fef8ce"/>
      <stop offset=".54" stop-color="#faefbc"/>
      <stop offset=".63" stop-color="#efda90"/>
      <stop offset=".65" stop-color="#eed688"/>
      <stop offset=".85" stop-color="#ec9e28"/>
      <stop offset="1" stop-color="#c3932e"/>
    </linearGradient>
    <linearGradient id="linear-gradient1" x1="69.23" y1="244.86" x2="470.24" y2="244.86" gradientUnits="userSpaceOnUse">
      <stop offset="0" stop-color="#b7854d"/>
      <stop offset=".15" stop-color="#f5d98f"/>
      <stop offset=".3" stop-color="#fdf6b7"/>
      <stop offset=".52" stop-color="#f5d88e"/>
      <stop offset=".64" stop-color="#fcf5b7"/>
      <stop offset=".75" stop-color="#d4b067"/>
      <stop offset=".85" stop-color="#bd9149"/>
      <stop offset="1" stop-color="#b7854d"/>
    </linearGradient>
    <linearGradient id="linear-gradient2" x1="69.23" y1="241.62" x2="470.24" y2="241.62" xlink:href="#linear-gradient1"/>
    <linearGradient id="linear-gradient3" x1="69.23" y1="288.15" x2="470.24" y2="288.15" xlink:href="#linear-gradient1"/>
    <linearGradient id="linear-gradient4" x1="69.23" y1="320.47" x2="470.24" y2="320.47" xlink:href="#linear-gradient1"/>
    <linearGradient id="linear-gradient5" x1="69.23" y1="335.61" x2="470.24" y2="335.61" xlink:href="#linear-gradient1"/>
    <linearGradient id="linear-gradient6" x1="69.23" y1="349.04" x2="470.24" y2="349.04" xlink:href="#linear-gradient1"/>
    <linearGradient id="linear-gradient7" x1="69.23" y1="354.61" x2="470.24" y2="354.61" xlink:href="#linear-gradient1"/>
    <linearGradient id="linear-gradient8" x1="69.23" y1="359.31" x2="470.24" y2="359.31" xlink:href="#linear-gradient1"/>
    <linearGradient id="linear-gradient9" x1="69.23" y1="259.17" x2="470.24" y2="259.17" xlink:href="#linear-gradient1"/>
    <linearGradient id="linear-gradient10" x1="69.23" y1="226.77" x2="470.24" y2="226.77" xlink:href="#linear-gradient1"/>
    <linearGradient id="linear-gradient11" x1="69.23" y1="252.56" x2="470.24" y2="252.56" xlink:href="#linear-gradient1"/>
    <linearGradient id="linear-gradient12" x1="86.86" y1="247.98" x2="308.22" y2="247.98" gradientUnits="userSpaceOnUse">
      <stop offset="0" stop-color="#b7854d"/>
      <stop offset=".15" stop-color="#f5d98f"/>
      <stop offset=".3" stop-color="#fdf6b7"/>
      <stop offset=".52" stop-color="#f5d88e"/>
      <stop offset=".68" stop-color="#fcf5b7"/>
      <stop offset=".84" stop-color="#d4b067"/>
      <stop offset="1" stop-color="#b7854d"/>
    </linearGradient>
    <linearGradient id="linear-gradient13" x1="79.65" y1="243.35" x2="265.57" y2="243.35" xlink:href="#linear-gradient12"/>
    <linearGradient id="linear-gradient14" x1="112.36" y1="291.74" x2="268.41" y2="291.74" xlink:href="#linear-gradient12"/>
    <linearGradient id="linear-gradient15" x1="171.78" y1="320.47" x2="278.01" y2="320.47" xlink:href="#linear-gradient12"/>
    <linearGradient id="linear-gradient16" x1="233.66" y1="335.76" x2="285.74" y2="335.76" xlink:href="#linear-gradient12"/>
    <linearGradient id="linear-gradient17" x1="269.08" y1="349.98" x2="296.26" y2="349.98" xlink:href="#linear-gradient12"/>
    <linearGradient id="linear-gradient18" x1="299.02" y1="355.63" x2="307.8" y2="355.63" xlink:href="#linear-gradient12"/>
    <linearGradient id="linear-gradient19" x1="318.86" y1="359.93" x2="319.74" y2="359.93" xlink:href="#linear-gradient12"/>
    <linearGradient id="linear-gradient20" x1="236.55" y1="198.13" x2="444.69" y2="198.13" xlink:href="#linear-gradient12"/>
    <linearGradient id="linear-gradient21" x1="346.48" y1="300.22" x2="446.2" y2="300.22" xlink:href="#linear-gradient12"/>
  </defs>
  <g>
    <text class="st8" transform="translate(65.69 477.52)"><tspan x="0" y="0">SL FORMATIONS</tspan></text>
    <g>
      <path class="st24" d="M83.94,478.84c-3.96,0-7.35-1.43-10.09-4.26-.35.71-.63,1.61-.83,2.67l-.1.52h-2.54v-13.23h2.53l.1.51c1.5,7.52,4.91,11.17,10.43,11.17,2.42,0,4.31-.69,5.62-2.04,1.33-1.38,1.98-2.87,1.98-4.56s-.56-3.09-1.71-4.24c-1.2-1.18-3.46-2.48-6.71-3.87-3-1.29-5.3-2.43-6.84-3.41-1.6-1.01-2.87-2.35-3.77-3.97-.9-1.63-1.36-3.38-1.36-5.22,0-2.82.99-5.2,2.95-7.08,1.95-1.87,4.45-2.82,7.42-2.82,1.64,0,3.21.27,4.66.81,1.31.48,2.65,1.42,4,2.79.49-.74.77-1.51.85-2.34l.05-.58h2.42v11.01h-2.34l-.12-.49c-.66-2.7-1.84-4.84-3.5-6.38-1.66-1.53-3.52-2.27-5.7-2.27-2.01,0-3.49.53-4.39,1.58-.94,1.09-1.4,2.24-1.4,3.52,0,1.55.57,2.82,1.74,3.89,1.23,1.16,3.5,2.49,6.77,3.95,3.2,1.43,5.57,2.6,7.05,3.48,1.54.92,2.8,2.21,3.72,3.84.93,1.63,1.4,3.52,1.4,5.64,0,3.35-1.14,6.12-3.38,8.23-2.23,2.1-5.24,3.16-8.94,3.16Z"/>
      <path class="st24" d="M101.96,478.16v-2.54h1.73c1.81,0,2.61-.27,2.96-.5.47-.31.77-.79.9-1.47.16-.8.25-2.76.25-5.81v-18.24c0-2.91-.08-4.79-.25-5.61-.14-.68-.4-1.13-.8-1.36-.26-.15-1.03-.41-3.34-.41h-1.46v-2.54h19.13v2.54h-2.28c-2.25,0-3.03.24-3.29.38-.4.21-.67.63-.82,1.27-.12.53-.27,1.95-.27,5.73v19.48c0,3.28.11,4.48.21,4.91.11.5.4.88.89,1.16.31.18,1.22.48,3.87.48h2.83c2.2,0,3.84-.19,4.87-.57.98-.36,1.94-1.17,2.86-2.41.95-1.29,1.83-3.38,2.63-6.24l.13-.46h2.43l-.31,12.22h-32.86Z"/>
      <path class="st24" d="M155.53,478.16v-2.54h1.79c1.81,0,2.61-.27,2.96-.5.47-.31.77-.79.91-1.47.16-.8.25-2.76.25-5.81v-18.24c0-2.91-.08-4.79-.25-5.61-.14-.68-.4-1.13-.8-1.36-.26-.15-1.03-.41-3.34-.41h-1.29v-2.54h29.95l.34,10.55h-2.51l-.07-.56c-.24-1.92-.79-3.52-1.61-4.76-.8-1.2-1.63-1.95-2.46-2.23-.9-.31-2.48-.46-4.71-.46h-6.63v14.5h2.85c2.57,0,3.61-.51,4.03-.95.42-.43.93-1.5.93-4.12v-.64h2.65v14.39h-2.65v-.64c0-1.51-.15-2.71-.45-3.56-.26-.76-.64-1.28-1.13-1.54-.37-.2-1.25-.43-3.39-.43h-2.85v8.61c0,2.88.07,4.78.21,5.65.12.74.4,1.27.86,1.61.33.24,1.13.53,3.06.53h1.9v2.54h-18.56Z"/>
      <path class="st24" d="M211.54,478.84c-6.05,0-11.09-1.86-14.98-5.52-3.9-3.68-5.88-8.6-5.88-14.65s2.01-10.71,5.97-14.3c3.94-3.57,8.92-5.38,14.8-5.38s10.96,1.79,14.95,5.32c4.01,3.55,6.04,8.44,6.04,14.55s-1.94,10.78-5.78,14.45c-3.83,3.67-8.92,5.53-15.13,5.53ZM211.49,441.64c-4.31,0-7.52,1.4-9.8,4.27-2.28,2.88-3.44,7.24-3.44,12.95s1.16,10.2,3.44,13.07c2.25,2.83,5.69,4.26,10.24,4.26,4.02,0,7.11-1.39,9.44-4.26,2.33-2.87,3.51-7.25,3.51-13.01s-1.16-9.95-3.46-12.9c-2.29-2.94-5.54-4.38-9.92-4.38Z"/>
      <path class="st24" d="M268.11,478.16l-.16-.12c-1.85-1.3-4.57-4.54-8.3-9.92-1.16-1.66-2.37-3.28-3.62-4.8-1.52-1.86-2.19-2.5-2.48-2.71-.25-.18-.77-.39-1.85-.39h-.84v7.62c0,2.88.07,4.78.2,5.65.11.74.39,1.26.85,1.6.33.24,1.12.53,3.04.53h2.42v2.54h-19.08v-2.54h1.84c1.81,0,2.61-.27,2.96-.5.47-.31.76-.79.89-1.47.16-.81.24-2.77.24-5.82v-18.24c0-2.91-.08-4.8-.24-5.61-.13-.68-.39-1.12-.79-1.35-.26-.15-1.05-.41-3.36-.41h-1.27v-2.5l5.93-.31c3.54-.17,6.39-.25,8.48-.25,3.59,0,6.57.34,8.84,1.01,2.32.69,4.23,1.84,5.68,3.42,1.48,1.61,2.22,3.57,2.22,5.81,0,2.6-.97,4.85-2.88,6.69-1.6,1.53-3.83,2.58-6.66,3.13,1.58,1.33,3.68,3.76,6.35,7.36,2.76,3.71,4.95,6.17,6.5,7.3,1.5,1.09,3.3,1.67,5.35,1.74l.62.02v2.51h-10.85ZM250.84,457.66c1.16-.04,2.36-.08,3.58-.14,1.4-.07,2.63-.26,3.66-.58.98-.3,1.77-.73,2.37-1.29.59-.56,1.07-1.32,1.42-2.24.36-.95.54-2.15.54-3.56,0-2.45-.61-4.43-1.81-5.87-1.17-1.41-3.88-2.13-8.06-2.13-.5,0-1.07.02-1.7.06v15.76Z"/>
      <path class="st24" d="M313.85,478.16v-2.54h1.95c1.79,0,2.58-.27,2.93-.5.47-.31.77-.79.9-1.47.16-.8.25-2.76.25-5.81v-20.66l-13.68,30.98h-2.12l-13.79-31v18.78c0,2.93.09,4.95.27,5.98.16.94.64,1.74,1.49,2.46.84.72,2.06,1.13,3.63,1.23l.6.04v2.5h-14.58v-2.5l.6-.03c1.45-.08,2.64-.48,3.53-1.17.88-.69,1.4-1.5,1.59-2.49.21-1.09.32-3.17.32-6.19v-16.18c0-2.91-.08-4.79-.25-5.61-.14-.68-.4-1.13-.8-1.36-.26-.15-1.03-.41-3.34-.41h-1.65v-2.54h12.38l13.22,29.84,13.14-29.84h12.46v2.54h-2.01c-2.25,0-3.03.24-3.29.38-.4.21-.67.63-.82,1.27-.12.53-.27,1.96-.27,5.73v18.24c0,2.88.07,4.78.21,5.65.12.74.4,1.27.86,1.61.33.24,1.12.53,3.04.53h2.28v2.54h-19.05Z"/>
      <path class="st24" d="M359.29,478.16v-2.54h.64c2.12,0,3.01-.19,3.39-.35.27-.12.56-.32.56-.99,0-.12-.1-.7-1.21-3.35l-2.69-6.5h-13.27l-.8,1.96c-1.73,4.15-2.09,5.8-2.09,6.45,0,.91.29,1.58.89,2.03.64.49,1.5.73,2.54.73h.64v2.54h-12.33v-2.44l.54-.08c1.49-.23,2.6-.75,3.3-1.54.75-.85,1.69-2.71,2.79-5.53.05-.15.25-.69,1.32-3.2l10.97-26.2h1.92l12.59,29.93,1.7,3.89c.34.78.8,1.39,1.36,1.82.55.43,1.42.7,2.59.82l.57.06v2.48h-15.89ZM358.97,461.93l-5.63-13.56-5.61,13.56h11.23Z"/>
      <path class="st24" d="M382.54,478.16v-2.54h2.56c1.81,0,2.61-.27,2.96-.5.47-.31.76-.79.9-1.47.16-.8.25-2.76.25-5.81v-25.62h-4.88c-2.33,0-3.89.11-4.66.32-.66.18-1.32.79-1.95,1.8-.67,1.07-1.2,2.77-1.57,5.03l-.09.53h-2.45l.22-10.22h37.35l.22,10.22h-2.37l-.09-.53c-.4-2.35-.95-4.05-1.63-5.06-.64-.96-1.32-1.54-2.01-1.75-.78-.23-2.17-.34-4.13-.34h-5.34v25.62c0,2.87.07,4.76.2,5.64.11.75.39,1.27.86,1.61.34.24,1.13.54,3.03.54h2.45v2.54h-19.82Z"/>
      <path class="st24" d="M415.66,478.16v-2.54h1.73c1.82,0,2.61-.27,2.96-.5.47-.31.76-.79.89-1.47.16-.81.24-2.76.24-5.82v-18.24c0-2.91-.08-4.8-.24-5.61-.13-.68-.39-1.12-.79-1.35-.26-.15-1.05-.41-3.36-.41h-1.43v-2.54h18.28v2.54h-1.43c-2.25,0-3.03.24-3.29.38-.4.21-.67.63-.82,1.27-.12.53-.27,1.95-.27,5.73v18.24c0,2.88.07,4.78.2,5.65.11.74.39,1.26.85,1.6.33.24,1.12.53,3.04.53h1.73v2.54h-18.28Z"/>
      <path class="st24" d="M460.64,478.84c-6.05,0-11.08-1.86-14.98-5.52-3.9-3.67-5.88-8.6-5.88-14.65s2.01-10.71,5.97-14.3c3.94-3.57,8.92-5.38,14.8-5.38s10.96,1.79,14.95,5.32c4.01,3.55,6.04,8.44,6.04,14.55s-1.94,10.78-5.78,14.45c-3.83,3.67-8.92,5.53-15.13,5.53ZM460.58,441.64c-4.25,0-7.55,1.44-9.8,4.27-2.28,2.88-3.44,7.24-3.44,12.95s1.16,10.2,3.44,13.07c2.25,2.83,5.7,4.26,10.24,4.26,4.02,0,7.11-1.39,9.44-4.26,2.33-2.87,3.51-7.25,3.51-13.01s-1.16-9.95-3.46-12.9c-2.29-2.94-5.54-4.38-9.92-4.38Z"/>
      <path class="st24" d="M520.85,479.01l-25.35-33.6v23.91c0,2.57.16,3.61.29,4.04.16.51.67,1.02,1.51,1.5.88.51,2.27.77,4.13.77h.64v2.54h-15.15v-2.49l.59-.04c1.67-.12,2.95-.42,3.8-.89.76-.43,1.23-.88,1.36-1.31.11-.37.24-1.39.24-4.1v-19.72c0-2.78-.13-4.66-.38-5.57-.21-.78-.52-1.27-.92-1.46-.27-.13-1.1-.35-3.58-.35h-.64v-2.54h11.93l21.08,27.85v-20.35c0-1.91-.24-2.78-.44-3.17-.26-.51-.84-.93-1.72-1.26-.97-.36-2.16-.54-3.54-.54h-.64v-2.54h14.77v2.49l-.58.05c-1.48.12-2.65.4-3.47.83-.76.4-1.24.86-1.43,1.37-.15.41-.33,1.29-.33,3.17v31.42h-2.13Z"/>
      <path class="st24" d="M547.67,478.84c-3.96,0-7.35-1.43-10.09-4.26-.35.71-.63,1.61-.83,2.68l-.1.52h-2.54v-13.23h2.53l.1.51c1.5,7.52,4.91,11.17,10.43,11.17,2.42,0,4.31-.69,5.62-2.04,1.33-1.38,1.98-2.87,1.98-4.56s-.56-3.09-1.71-4.24c-1.2-1.18-3.46-2.48-6.71-3.87-3-1.29-5.3-2.43-6.84-3.41-1.6-1.01-2.87-2.35-3.77-3.97-.9-1.62-1.35-3.38-1.35-5.22,0-2.82.99-5.2,2.95-7.08,1.95-1.87,4.45-2.82,7.42-2.82,1.64,0,3.21.27,4.66.81,1.31.48,2.65,1.42,4,2.79.49-.74.77-1.51.85-2.34l.05-.58h2.42v11.01h-2.34l-.12-.49c-.66-2.7-1.84-4.84-3.5-6.38-1.66-1.53-3.52-2.27-5.7-2.27-2.01,0-3.49.53-4.39,1.58-.94,1.09-1.4,2.24-1.4,3.52,0,1.55.57,2.82,1.74,3.89,1.23,1.16,3.5,2.49,6.77,3.95,3.2,1.43,5.57,2.6,7.05,3.48,1.54.92,2.8,2.21,3.72,3.84.93,1.63,1.4,3.52,1.4,5.64,0,3.35-1.14,6.12-3.38,8.23-2.23,2.1-5.24,3.16-8.94,3.16Z"/>
    </g>
    <g>
      <path class="st13" d="M71.01,477.14v-11.96h1.37c1.55,7.79,5.24,11.69,11.06,11.69,2.61,0,4.64-.75,6.08-2.24,1.44-1.49,2.15-3.16,2.15-5.01s-.63-3.43-1.89-4.69c-1.26-1.24-3.57-2.58-6.91-4-2.98-1.28-5.23-2.4-6.75-3.36s-2.7-2.21-3.55-3.74c-.85-1.54-1.28-3.17-1.28-4.91,0-2.65.92-4.86,2.76-6.62,1.84-1.76,4.17-2.65,6.98-2.65,1.57,0,3.05.26,4.44.77,1.39.51,2.82,1.57,4.28,3.18.84-1.01,1.32-2.09,1.43-3.26h1.21v9.74h-1.21c-.7-2.83-1.92-5.07-3.69-6.69-1.76-1.63-3.81-2.44-6.13-2.44s-3.84.6-4.87,1.8c-1.03,1.2-1.55,2.51-1.55,3.94,0,1.72.65,3.17,1.95,4.36,1.28,1.21,3.59,2.56,6.94,4.06,3.2,1.43,5.53,2.57,6.98,3.44,1.45.87,2.62,2.07,3.5,3.61.88,1.54,1.32,3.31,1.32,5.32,0,3.18-1.06,5.77-3.18,7.76-2.12,1.99-4.96,2.99-8.5,2.99-4.08,0-7.48-1.56-10.21-4.69-.6.86-1.05,2.07-1.34,3.62h-1.37Z"/>
      <path class="st13" d="M134.48,466.57l-.27,10.95h-31.6v-1.26h1.1c1.59,0,2.69-.2,3.31-.6.61-.4,1.01-1.03,1.18-1.88.17-.85.26-2.83.26-5.94v-18.24c0-2.96-.09-4.87-.26-5.73s-.54-1.45-1.1-1.78c-.56-.33-1.78-.49-3.66-.49h-.82v-1.26h17.86v1.26h-1.65c-1.83,0-3.03.15-3.59.45s-.95.86-1.14,1.69c-.19.82-.29,2.78-.29,5.87v19.48c0,2.69.07,4.37.22,5.05.15.68.54,1.2,1.19,1.58.65.38,2.04.56,4.18.56h2.83c2.29,0,3.98-.2,5.09-.6,1.11-.4,2.16-1.28,3.15-2.63,1-1.35,1.91-3.5,2.73-6.45h1.29Z"/>
      <path class="st13" d="M185.08,440.32l.3,9.27h-1.29c-.26-2.03-.83-3.71-1.71-5.03-.89-1.33-1.82-2.15-2.78-2.48s-2.61-.49-4.91-.49h-7.27v15.77h3.48c2.25,0,3.74-.38,4.49-1.14.74-.76,1.11-2.28,1.11-4.57h1.37v13.11h-1.37c0-1.59-.16-2.85-.48-3.77-.32-.92-.8-1.55-1.43-1.89-.63-.34-1.86-.51-3.69-.51h-3.48v9.25c0,2.93.07,4.84.22,5.75s.52,1.58,1.11,2.02c.59.44,1.74.66,3.44.66h1.26v1.26h-17.28v-1.26h1.15c1.59,0,2.69-.2,3.31-.6.61-.4,1.01-1.03,1.18-1.88.17-.85.26-2.83.26-5.94v-18.24c0-2.96-.09-4.87-.26-5.73-.17-.86-.54-1.45-1.1-1.78-.56-.33-1.78-.49-3.66-.49h-.66v-1.26h28.69Z"/>
      <path class="st13" d="M191.32,458.67c0-5.74,1.92-10.35,5.76-13.83,3.84-3.47,8.63-5.21,14.37-5.21s10.64,1.72,14.53,5.16c3.89,3.44,5.83,8.13,5.83,14.07s-1.86,10.42-5.58,13.99c-3.72,3.57-8.62,5.35-14.69,5.35s-10.75-1.78-14.54-5.35c-3.79-3.57-5.68-8.29-5.68-14.18ZM197.6,458.87c0,5.98,1.19,10.47,3.58,13.47,2.39,3,5.97,4.5,10.74,4.5,4.19,0,7.5-1.5,9.93-4.5,2.43-3,3.65-7.47,3.65-13.42s-1.2-10.21-3.59-13.29c-2.4-3.08-5.87-4.62-10.42-4.62s-7.91,1.5-10.3,4.51c-2.39,3.01-3.58,7.46-3.58,13.35Z"/>
      <path class="st13" d="M278.32,477.52h-10.01c-1.77-1.24-4.49-4.5-8.15-9.77-1.17-1.68-2.39-3.3-3.65-4.84-1.26-1.55-2.13-2.49-2.61-2.83-.48-.34-1.22-.51-2.22-.51h-1.48v8.26c0,2.93.07,4.84.21,5.75s.5,1.58,1.1,2.02c.59.44,1.73.66,3.42.66h1.78v1.26h-17.8v-1.26h1.21c1.59,0,2.69-.2,3.31-.6s1-1.03,1.17-1.88c.16-.85.25-2.83.25-5.94v-18.24c0-2.96-.08-4.87-.25-5.73s-.53-1.45-1.1-1.78c-.57-.33-1.79-.49-3.68-.49h-.63v-1.26l5.32-.27c3.55-.17,6.36-.25,8.45-.25,3.55,0,6.43.33,8.66.99,2.22.66,4.02,1.74,5.39,3.24,1.37,1.5,2.06,3.29,2.06,5.38,0,2.43-.9,4.51-2.69,6.23-1.79,1.72-4.43,2.79-7.9,3.21,1.55.75,4.06,3.46,7.52,8.12,2.82,3.79,5.03,6.26,6.64,7.43,1.61,1.17,3.51,1.79,5.71,1.87v1.26ZM250.2,458.32c1.37-.04,2.79-.09,4.25-.16,1.46-.07,2.73-.27,3.81-.6,1.08-.33,1.95-.81,2.62-1.44.67-.63,1.19-1.46,1.58-2.48.38-1.02.58-2.29.58-3.79,0-2.61-.65-4.71-1.96-6.28-1.31-1.57-4.16-2.36-8.54-2.36-.68,0-1.45.04-2.33.11v17.01Z"/>
      <path class="st13" d="M307.3,471.1l13.55-30.78h11.41v1.26h-1.37c-1.83,0-3.03.15-3.59.45-.57.3-.95.86-1.14,1.69-.19.82-.29,2.78-.29,5.87v18.24c0,2.93.07,4.84.22,5.75.15.91.52,1.58,1.11,2.02.59.44,1.73.66,3.42.66h1.65v1.26h-17.78v-1.26h1.32c1.57,0,2.67-.2,3.28-.6.61-.4,1.01-1.03,1.18-1.88.17-.85.26-2.83.26-5.94v-23.67l-14.73,33.36h-1.29l-14.84-33.36v21.78c0,2.98.09,5.01.27,6.09.18,1.08.75,2.03,1.7,2.84.95.81,2.29,1.28,4,1.39v1.26h-13.3v-1.26c1.59-.09,2.88-.53,3.88-1.3,1-.78,1.6-1.73,1.82-2.87s.33-3.24.33-6.31v-16.18c0-2.96-.09-4.87-.26-5.73s-.54-1.45-1.1-1.78c-.56-.33-1.78-.49-3.66-.49h-1.02v-1.26h11.33l13.63,30.78Z"/>
      <path class="st13" d="M360.39,463.8h-14.13l-.96,2.36c-1.43,3.42-2.14,5.65-2.14,6.69,0,1.12.38,1.96,1.14,2.54s1.73.86,2.92.86v1.26h-11.06v-1.26c1.65-.26,2.87-.84,3.68-1.74s1.77-2.81,2.91-5.72c.09-.27.53-1.33,1.32-3.18l10.81-25.81h1.07l12.43,29.54,1.7,3.9c.38.88.9,1.57,1.55,2.07s1.62.82,2.92.95v1.26h-14.62v-1.26c1.79,0,3-.13,3.63-.4.63-.27.95-.79.95-1.58,0-.4-.42-1.6-1.26-3.59l-2.85-6.88ZM359.93,462.57l-6.58-15.86-6.56,15.86h13.14Z"/>
      <path class="st13" d="M375.52,449.26h-1.26l.19-8.94h36.1l.19,8.94h-1.18c-.42-2.45-1-4.22-1.73-5.31s-1.52-1.76-2.36-2c-.84-.25-2.28-.37-4.31-.37h-5.98v26.25c0,2.91.07,4.82.21,5.73.14.92.51,1.59,1.11,2.03.6.44,1.74.66,3.4.66h1.81v1.26h-18.54v-1.26h1.92c1.59,0,2.69-.2,3.31-.6.61-.4,1-1.03,1.18-1.88.17-.85.26-2.83.26-5.94v-26.25h-5.51c-2.4,0-4,.11-4.83.34-.82.23-1.6.92-2.32,2.07s-1.28,2.91-1.66,5.27Z"/>
      <path class="st13" d="M416.3,441.58v-1.26h17.01v1.26h-.8c-1.83,0-3.03.15-3.59.45-.57.3-.95.86-1.14,1.69-.19.82-.29,2.78-.29,5.87v18.24c0,2.93.07,4.84.21,5.75.14.91.5,1.58,1.1,2.02.59.44,1.73.66,3.42.66h1.1v1.26h-17.01v-1.26h1.1c1.59,0,2.69-.2,3.31-.6.61-.4,1-1.03,1.17-1.88.17-.85.25-2.83.25-5.94v-18.24c0-2.96-.08-4.87-.25-5.73-.16-.86-.53-1.45-1.1-1.78-.57-.33-1.79-.49-3.68-.49h-.79Z"/>
      <path class="st13" d="M440.42,458.67c0-5.74,1.92-10.35,5.76-13.83,3.84-3.47,8.63-5.21,14.37-5.21s10.64,1.72,14.53,5.16c3.89,3.44,5.83,8.13,5.83,14.07s-1.86,10.42-5.58,13.99c-3.72,3.57-8.62,5.35-14.69,5.35s-10.75-1.78-14.54-5.35c-3.79-3.57-5.68-8.29-5.68-14.18ZM446.7,458.87c0,5.98,1.19,10.47,3.58,13.47s5.97,4.5,10.74,4.5c4.19,0,7.5-1.5,9.93-4.5,2.43-3,3.65-7.47,3.65-13.42s-1.2-10.21-3.59-13.29c-2.4-3.08-5.87-4.62-10.42-4.62s-7.91,1.5-10.3,4.51c-2.39,3.01-3.58,7.46-3.58,13.35Z"/>
      <path class="st13" d="M521.16,478.37l-26.31-34.87v25.81c0,2.14.11,3.55.32,4.22.21.68.81,1.3,1.8,1.87.99.57,2.47.85,4.44.85v1.26h-13.88v-1.26c1.77-.13,3.13-.45,4.06-.97.93-.52,1.49-1.08,1.66-1.69s.26-2.03.26-4.28v-19.72c0-2.85-.13-4.76-.4-5.73-.27-.97-.69-1.59-1.26-1.87-.58-.27-1.86-.41-3.85-.41v-1.26h10.97l22.03,29.11v-22.25c0-1.65-.17-2.8-.51-3.46-.34-.66-1.03-1.18-2.07-1.56-1.04-.38-2.29-.58-3.76-.58v-1.26h13.5v1.26c-1.57.13-2.81.43-3.72.91s-1.48,1.05-1.73,1.71c-.25.67-.37,1.8-.37,3.39v30.78h-1.18Z"/>
      <path class="st13" d="M534.75,477.14v-11.96h1.37c1.55,7.79,5.24,11.69,11.06,11.69,2.62,0,4.64-.75,6.08-2.24,1.44-1.49,2.15-3.16,2.15-5.01s-.63-3.43-1.89-4.69c-1.26-1.24-3.57-2.58-6.91-4-2.98-1.28-5.23-2.4-6.75-3.36-1.52-.96-2.7-2.21-3.55-3.74-.85-1.54-1.28-3.17-1.28-4.91,0-2.65.92-4.86,2.76-6.62,1.84-1.76,4.17-2.65,6.98-2.65,1.57,0,3.05.26,4.44.77,1.39.51,2.82,1.57,4.28,3.18.84-1.01,1.32-2.09,1.43-3.26h1.21v9.74h-1.21c-.69-2.83-1.92-5.07-3.69-6.69s-3.81-2.44-6.13-2.44-3.84.6-4.87,1.8-1.55,2.51-1.55,3.94c0,1.72.65,3.17,1.95,4.36,1.28,1.21,3.59,2.56,6.94,4.06,3.2,1.43,5.53,2.57,6.98,3.44,1.45.87,2.62,2.07,3.5,3.61s1.32,3.31,1.32,5.32c0,3.18-1.06,5.77-3.18,7.76-2.12,1.99-4.96,2.99-8.5,2.99-4.08,0-7.48-1.56-10.2-4.69-.6.86-1.05,2.07-1.34,3.62h-1.37Z"/>
    </g>
  </g>
  <g>
    <g>
      <g>
        <path class="st9" d="M336.46,353.14c-.22-.14-.45-.28-.67-.43-3.27-2.15-6.22-4.7-8.88-7.53-5.29-5.73-9.42-12.45-12.95-19.45-3.54-7.01-6.36-14.4-8.89-21.88-2.52-7.53-4.65-15.06-6.62-22.88-2.19-8.23-4.75-16.59-9.39-24.88-2.33-4.11-5.26-8.14-8.83-11.72-3.59-3.54-7.75-6.63-12.11-8.95-8.79-4.66-17.72-6.68-26.04-7.97l-1.64-.25-1.95-.22c-1.19-.12-2.32-.2-3.42-.27-2.19-.14-4.28-.23-6.34-.31l-12.08-.41c-15.84-.51-31.35-1.53-46.54-4.1-15.17-2.53-30-6.59-43.61-13.18-13.58-6.57-25.84-15.9-35.17-28.16-4.7-6.1-8.56-12.93-11.79-20.14-3.18-7.24-5.61-14.91-7.49-22.8.07,16.18,3.65,32.82,11.76,47.76,7.98,15,20.59,27.67,35.08,36.84,14.5,9.28,30.67,15.36,46.96,19.58,8.18,2.07,16.41,3.71,24.66,4.98,8.24,1.25,16.49,2.2,24.64,2.95l12.04,1.04c3.94.37,7.7.72,10.69,1.35,7.52,1.45,14.51,2.78,20.44,4.8,2.98,1.02,5.76,2.16,8.36,3.78,2.64,1.56,5.14,3.57,7.47,6.03,4.7,4.89,8.57,11.51,11.54,18.51,6.06,15.12,12.95,30.28,22.08,44.12,4.57,6.9,9.8,13.5,16.17,18.94,3.12,2.69,6.53,5.07,10.18,6.96l2.34-2.09Z"/>
        <path class="st9" d="M283.04,289.79c-3.36-4.03-5.82-8.52-9.73-12.57-3.85-4.07-8.73-7.23-13.68-9.64-4.97-2.46-10.11-4.28-15.25-5.86-5.14-1.58-10.32-2.85-15.5-3.95-20.73-4.38-41.53-6.21-62.25-7.3l-3.72-.2c-1.07-.08-2.18-.16-3.35-.28-2.3-.24-4.6-.54-6.89-.89-4.57-.74-9.12-1.73-13.62-2.99-8.99-2.52-17.81-5.97-26.24-10.4-8.41-4.45-16.52-9.72-23.91-16.08-7.35-6.4-14.14-13.64-18.96-23.08-.24,5.33.91,10.79,2.74,15.95,1.85,5.17,4.42,10.1,7.45,14.71,6.1,9.22,13.97,17.26,22.91,23.88,8.95,6.61,18.96,11.9,29.63,15.52,5.34,1.78,10.82,3.21,16.4,4.15,2.79.48,5.6.85,8.42,1.1,1.39.13,2.85.23,4.35.32l3.99.13c20.41.5,40.79.81,60.91,1.7,10.03.57,20.06,1.14,29.56,3.05,4.75,1,9.27,2.34,13.55,4.64,4.27,2.24,8.45,5.76,13.19,8.11Z"/>
        <path class="st9" d="M286.05,302.63c-3.37-2.59-6.55-5.33-10.2-7.7-3.6-2.4-7.53-4.47-11.65-6.12-8.25-3.32-17.13-5.05-25.91-5.66-8.8-.63-17.55-.22-26.13.8-4.27.53-8.66,1.22-12.52,1.89-3.77.61-7.69,1.05-11.51,1.49-15.41,1.45-30.74,1.35-45.9-1.07-15.2-2.46-30.05-7.12-44.83-15.83,3.85,7.76,9.98,14.41,16.98,19.83,7.04,5.42,15.04,9.65,23.47,12.63,16.88,6.03,35.2,7.26,52.63,4.97,4.4-.5,8.66-1.31,13.02-2.26,4.25-.91,7.96-1.97,11.86-2.78,3.87-.83,7.72-1.7,11.6-2.35,3.87-.74,7.74-1.29,11.61-1.77,7.76-.89,15.51-1.31,23.34-.64,3.91.34,7.84.95,11.84,1.81,3.99.84,8.08,2.04,12.32,2.75Z"/>
        <path class="st9" d="M290.5,313.21c-2.6-1.56-5.1-3.2-7.97-4.43-2.84-1.28-5.92-2.19-9.07-2.78-6.32-1.15-12.81-.89-18.99.1-6.19,1.01-12.12,2.77-17.79,4.96l-3.92,1.54-3.54,1.29c-2.41.83-4.86,1.58-7.33,2.26-9.91,2.66-20.23,4.37-30.84,5.35-5.32.47-10.69.73-16.18.73-5.52-.03-11.02-.29-17.03-1.49,1.77,2.52,4.08,4.73,6.59,6.56,2.51,1.87,5.23,3.43,8.04,4.79,5.63,2.69,11.65,4.45,17.76,5.51,12.24,2.11,24.97,1.38,37.11-2.12,3.03-.87,6.02-1.91,8.96-3.13,1.49-.61,2.88-1.23,4.39-1.97.81-.38,1.38-.69,2.03-1.02.76-.39,1.23-.68,1.86-1.01,4.74-2.55,9.48-4.97,14.29-7.15,4.81-2.18,9.66-4.07,14.79-5.4,2.57-.68,5.22-1.17,8.03-1.54,2.79-.36,5.82-.5,8.85-1.05Z"/>
        <path class="st9" d="M297.97,322.3c-1.83-.61-3.61-1.27-5.57-1.61-1.94-.38-3.98-.48-6.02-.37-4.09.24-8.06,1.41-11.7,2.96-3.65,1.58-7.02,3.6-10.14,5.84l-1.07.77-1.08.8c-.74.56-1.22.86-1.9,1.3-1.32.85-2.64,1.73-4.02,2.51-5.52,3.14-11.38,5.87-17.56,8.28-3.1,1.18-6.27,2.29-9.56,3.26-3.32.97-6.67,1.83-10.55,2.25,2.95,2.66,6.87,4.06,10.71,4.9,3.88.83,7.85.98,11.77.69,7.84-.61,15.55-3.08,22.4-7.23,1.7-1.07,3.4-2.14,4.98-3.39.78-.61,1.74-1.38,2.38-1.96l1.01-.89.21-.19.11-.11.22-.22.45-.44c2.42-2.32,4.85-4.56,7.35-6.69,2.49-2.13,5.06-4.09,7.88-5.81,1.41-.87,2.91-1.65,4.54-2.38,1.61-.73,3.43-1.37,5.17-2.28Z"/>
        <path class="st9" d="M305.96,333.05c-1.43-.16-2.83-.36-4.3-.27-1.47.04-2.97.32-4.42.76-2.92.89-5.57,2.45-7.9,4.24-2.33,1.8-4.35,3.86-6.15,6.04l-.61.73-.6.77c-.42.53-.68.8-1.06,1.23-.75.82-1.49,1.67-2.28,2.46-3.17,3.2-6.65,6.2-10.36,9.18-1.87,1.47-3.81,2.92-5.85,4.35-2.07,1.43-4.17,2.8-6.81,4.06,2.58,1.5,5.66,1.85,8.57,1.8,2.95-.07,5.82-.67,8.58-1.6,5.51-1.85,10.52-5.12,14.59-9.42.99-1.1,2-2.19,2.87-3.41.42-.58.97-1.35,1.3-1.87l.53-.82c.2-.3.19-.31.29-.48l.22-.39c1.2-2.08,2.4-4.12,3.66-6.11,1.25-1.99,2.56-3.89,4.09-5.71.77-.92,1.62-1.8,2.58-2.69.94-.88,2.06-1.77,3.08-2.84Z"/>
        <path class="st9" d="M313.83,342.51c-1.84-.12-3.76.12-5.56,1-1.78.85-3.29,2.13-4.56,3.5-1.25,1.39-2.28,2.9-3.11,4.46-.09.16-.25.46-.28.5l-.27.54c-.19.37-.29.51-.45.8l-1,1.66c-1.4,2.19-2.92,4.39-4.53,6.72l-2.57,3.58c-.93,1.25-1.86,2.49-3.21,3.87,1.79.82,3.81.78,5.65.48,1.87-.31,3.61-.98,5.23-1.86,3.24-1.76,5.95-4.42,7.86-7.65.48-.81.92-1.65,1.29-2.52.18-.43.42-1.01.54-1.36l.2-.56c.12-.33.11-.39.17-.59l1.12-4.07c.37-1.35.76-2.65,1.27-4.01.26-.68.57-1.36.94-2.1.37-.73.89-1.48,1.27-2.38Z"/>
        <path class="st9" d="M320.49,350.66c-1.28.14-2.41.65-3.42,1.53-.97.87-1.66,1.97-2.15,3.05-.48,1.09-.77,2.21-.93,3.29-.02.1-.04.35-.05.33l-.04.35c-.03.26-.06.28-.08.46l-.17,1c-.26,1.34-.45,2.75-.55,4.37-.06.81-.1,1.66-.14,2.61-.01.99-.08,1.93-.31,3.27,1.36.33,2.6-.11,3.74-.58,1.12-.53,2.06-1.27,2.86-2.12,1.6-1.71,2.61-3.89,2.92-6.25.08-.59.12-1.19.13-1.79,0-.29,0-.73-.04-.94l-.04-.35c-.01-.25-.04-.24-.05-.37-.16-.79-.35-1.55-.56-2.31-.44-1.56-.99-2.85-1.12-5.56Z"/>
      </g>
      <path class="st9" d="M426.23,169.95c-24.24-24.24-56.47-37.59-90.76-37.59s-66.51,13.35-90.76,37.59c-14.36,14.36-24.9,31.53-31.11,50.27,1.1.04,2.18.08,3.23.11l4.7.16c16.61-46.91,61.41-80.61,113.93-80.61,66.62,0,120.82,54.2,120.82,120.82s-54.2,120.82-120.82,120.82c-13.78,0-27.03-2.33-39.38-6.6-.41.1-.82.18-1.23.25-1.16.18-2.18.27-3.18.27h0c-2.1,0-4.04-.4-5.76-1.2l-7.27-3.36.73-.74c-1.57.77-3.18,1.43-4.82,1.99-.62.21-1.24.39-1.86.57,18.96,10.66,40.43,16.34,62.77,16.34,34.28,0,66.51-13.35,90.76-37.59,24.24-24.24,37.59-56.47,37.59-90.76s-13.35-66.51-37.59-90.76Z"/>
      <g>
        <path class="st9" d="M385.28,228.71c.15-1.92-1.79-3.63-4.34-3.82-6.72-.52-10.35.99-13.46,2.45,2.86,1.92,6.21,3.97,12.93,4.48,2.54.2,4.72-1.2,4.87-3.11Z"/>
        <path class="st9" d="M335.47,147.41c-48.86,0-90.5,30.93-106.4,74.28,1.88.07,4.04.16,6.31.31,1.33.09,2.46.18,3.58.29h.08s2.12.25,2.12.25l1.64.25c7.64,1.19,17.66,3.22,27.54,8.46,4.72,2.51,9.28,5.88,13.2,9.75,3.69,3.69,6.91,7.97,9.62,12.75.19.34.37.68.55,1.02,10.28-11.8,20.5-22.67,29.06-29.95,3.95-3.35,14.94-12.36,32.69-14.46,17.35-2.05,41.72,3.03,48.48,11.55,10.64.86,49.49,10.33,30.66,41.75-.06-3.28-1.01-7.15-3.76-7.65-2.48-.45-21.82-2.82-31.07.39-9.25,3.2-27.6,7.23-36.85,41.86-6.38,23.89-15.88,45.19-24.21,53.59,8.38,6.9,37.09,12.82,55.56,5.72,32.68-19.88,54.5-55.82,54.5-96.87,0-62.57-50.73-113.3-113.3-113.3Z"/>
      </g>
    </g>
    <g>
      <g>
        <path class="st3" d="M338,351.59c-.22-.14-.45-.28-.67-.43-3.27-2.15-6.22-4.7-8.88-7.53-5.29-5.73-9.42-12.45-12.95-19.45-3.54-7.01-6.36-14.4-8.89-21.88-2.52-7.53-4.65-15.06-6.62-22.88-2.19-8.23-4.75-16.59-9.39-24.88-2.33-4.11-5.26-8.14-8.83-11.72-3.59-3.54-7.75-6.63-12.11-8.95-8.79-4.66-17.72-6.68-26.04-7.97l-1.64-.25-1.95-.22c-1.19-.12-2.32-.2-3.42-.27-2.19-.14-4.28-.23-6.34-.31l-12.08-.41c-15.84-.51-31.35-1.53-46.54-4.1-15.17-2.53-30-6.59-43.61-13.18-13.58-6.57-25.84-15.9-35.17-28.17-4.7-6.1-8.56-12.93-11.79-20.14-3.18-7.24-5.61-14.91-7.49-22.8.07,16.18,3.65,32.82,11.75,47.76,7.98,15,20.59,27.67,35.08,36.84,14.5,9.28,30.67,15.36,46.96,19.58,8.18,2.07,16.41,3.71,24.66,4.98,8.24,1.25,16.49,2.2,24.64,2.95l12.04,1.04c3.94.37,7.7.72,10.69,1.35,7.52,1.45,14.51,2.78,20.44,4.8,2.98,1.02,5.76,2.16,8.36,3.78,2.64,1.56,5.14,3.57,7.47,6.03,4.7,4.89,8.57,11.51,11.54,18.51,6.06,15.12,12.95,30.28,22.08,44.12,4.57,6.9,9.8,13.5,16.17,18.94,3.12,2.69,6.53,5.07,10.18,6.96l2.34-2.09Z"/>
        <path class="st0" d="M284.58,288.25c-3.36-4.03-5.82-8.52-9.73-12.57-3.85-4.07-8.73-7.23-13.68-9.64-4.97-2.46-10.11-4.28-15.25-5.86-5.14-1.58-10.32-2.85-15.5-3.95-20.73-4.38-41.53-6.21-62.25-7.3l-3.72-.2c-1.07-.08-2.18-.16-3.35-.28-2.3-.24-4.6-.54-6.89-.89-4.57-.74-9.12-1.73-13.62-2.99-8.99-2.52-17.81-5.97-26.24-10.4-8.41-4.45-16.52-9.72-23.91-16.08-7.35-6.4-14.14-13.64-18.96-23.08-.24,5.33.91,10.79,2.74,15.95,1.85,5.17,4.42,10.1,7.45,14.71,6.1,9.22,13.97,17.26,22.91,23.88,8.95,6.61,18.96,11.9,29.63,15.52,5.34,1.78,10.82,3.21,16.4,4.15,2.79.48,5.6.85,8.42,1.1,1.39.13,2.85.23,4.35.32l3.99.13c20.41.5,40.79.81,60.91,1.7,10.03.57,20.06,1.14,29.56,3.05,4.74,1,9.27,2.34,13.55,4.64,4.27,2.24,8.45,5.76,13.19,8.11Z"/>
        <path class="st19" d="M287.59,301.09c-3.37-2.59-6.55-5.33-10.2-7.7-3.6-2.4-7.53-4.47-11.65-6.12-8.25-3.32-17.13-5.05-25.91-5.66-8.8-.63-17.55-.22-26.13.8-4.27.53-8.66,1.22-12.52,1.89-3.77.62-7.69,1.05-11.51,1.49-15.41,1.45-30.74,1.35-45.9-1.07-15.2-2.46-30.05-7.12-44.83-15.83,3.85,7.76,9.98,14.41,16.98,19.83,7.04,5.42,15.04,9.65,23.47,12.63,16.88,6.03,35.2,7.26,52.63,4.97,4.4-.5,8.66-1.31,13.02-2.26,4.25-.91,7.96-1.97,11.86-2.78,3.87-.83,7.72-1.7,11.6-2.35,3.87-.74,7.74-1.29,11.61-1.77,7.76-.89,15.51-1.31,23.34-.64,3.91.34,7.84.95,11.84,1.81,3.99.84,8.08,2.04,12.32,2.75Z"/>
        <path class="st16" d="M292.04,311.67c-2.6-1.56-5.1-3.2-7.97-4.43-2.84-1.28-5.92-2.19-9.07-2.78-6.32-1.15-12.81-.89-18.99.1-6.19,1.01-12.12,2.77-17.79,4.96l-3.92,1.54-3.54,1.29c-2.41.83-4.86,1.58-7.33,2.26-9.91,2.66-20.23,4.37-30.84,5.35-5.32.47-10.69.73-16.18.73-5.52-.03-11.02-.29-17.03-1.49,1.77,2.52,4.08,4.73,6.59,6.56,2.51,1.87,5.23,3.43,8.04,4.79,5.63,2.69,11.65,4.45,17.76,5.51,12.24,2.11,24.97,1.38,37.11-2.12,3.03-.87,6.02-1.91,8.96-3.13,1.49-.61,2.88-1.23,4.39-1.97.81-.38,1.38-.69,2.03-1.02.76-.39,1.23-.68,1.86-1.01,4.74-2.55,9.48-4.97,14.29-7.15,4.81-2.18,9.66-4.07,14.79-5.4,2.57-.68,5.22-1.17,8.03-1.54,2.79-.36,5.82-.5,8.85-1.05Z"/>
        <path class="st18" d="M299.52,320.75c-1.83-.61-3.61-1.27-5.57-1.61-1.94-.38-3.98-.48-6.02-.37-4.09.24-8.06,1.41-11.7,2.96-3.65,1.58-7.02,3.6-10.14,5.84l-1.07.77-1.08.8c-.74.56-1.22.86-1.9,1.3-1.32.85-2.64,1.73-4.02,2.51-5.52,3.14-11.38,5.87-17.56,8.28-3.1,1.18-6.27,2.29-9.56,3.26-3.32.97-6.67,1.83-10.55,2.25,2.95,2.66,6.87,4.06,10.71,4.9,3.88.83,7.85.98,11.77.69,7.84-.61,15.55-3.08,22.4-7.23,1.7-1.07,3.4-2.14,4.98-3.39.78-.61,1.74-1.38,2.38-1.96l1.01-.89.21-.19.11-.11.22-.22.45-.44c2.42-2.32,4.85-4.56,7.35-6.69,2.49-2.13,5.06-4.09,7.88-5.81,1.41-.87,2.91-1.65,4.54-2.38,1.61-.73,3.43-1.37,5.17-2.28Z"/>
        <path class="st22" d="M307.5,331.51c-1.43-.16-2.83-.36-4.3-.27-1.47.04-2.97.32-4.42.76-2.92.89-5.57,2.45-7.9,4.24-2.33,1.8-4.35,3.86-6.15,6.04l-.61.73-.6.77c-.42.53-.68.8-1.06,1.23-.75.82-1.49,1.67-2.28,2.46-3.17,3.2-6.65,6.2-10.36,9.18-1.87,1.47-3.81,2.92-5.85,4.35-2.07,1.43-4.17,2.8-6.81,4.06,2.58,1.5,5.66,1.85,8.57,1.8,2.95-.07,5.82-.67,8.58-1.6,5.51-1.85,10.52-5.12,14.59-9.42.99-1.1,2-2.19,2.87-3.41.42-.58.97-1.35,1.3-1.87l.53-.82c.2-.3.19-.31.29-.48l.22-.39c1.2-2.08,2.4-4.13,3.66-6.11,1.25-1.99,2.56-3.89,4.09-5.71.77-.92,1.62-1.8,2.58-2.69.94-.88,2.06-1.77,3.08-2.84Z"/>
        <path class="st14" d="M315.37,340.97c-1.84-.12-3.76.12-5.56,1-1.78.85-3.29,2.13-4.56,3.5-1.25,1.39-2.28,2.9-3.11,4.46-.09.16-.25.46-.28.5l-.27.54c-.19.37-.29.51-.45.8l-1,1.66c-1.4,2.19-2.92,4.39-4.53,6.72l-2.57,3.58c-.93,1.25-1.86,2.49-3.21,3.87,1.79.82,3.81.78,5.65.48,1.87-.31,3.61-.98,5.23-1.86,3.24-1.76,5.95-4.42,7.86-7.65.48-.81.92-1.65,1.29-2.52.18-.43.42-1.01.54-1.36l.2-.56c.12-.33.11-.39.17-.59l1.12-4.07c.37-1.35.76-2.65,1.27-4.01.26-.68.57-1.36.94-2.1.37-.73.89-1.48,1.27-2.38Z"/>
        <path class="st6" d="M322.03,349.12c-1.28.14-2.41.65-3.42,1.53-.97.87-1.66,1.97-2.15,3.05-.48,1.09-.77,2.21-.93,3.29-.02.1-.04.35-.05.33l-.04.35c-.03.26-.06.28-.08.46l-.17,1c-.26,1.34-.45,2.75-.55,4.37-.06.81-.1,1.66-.14,2.61-.01.99-.08,1.93-.31,3.27,1.36.33,2.6-.11,3.74-.58,1.12-.53,2.06-1.27,2.86-2.12,1.6-1.71,2.61-3.89,2.93-6.25.08-.59.13-1.19.13-1.79,0-.29,0-.73-.04-.94l-.04-.35c-.01-.25-.04-.24-.05-.37-.16-.79-.35-1.55-.56-2.31-.44-1.56-.99-2.85-1.12-5.56Z"/>
      </g>
      <path class="st4" d="M427.77,168.41c-24.24-24.24-56.47-37.59-90.76-37.59s-66.51,13.35-90.76,37.59c-14.36,14.36-24.9,31.53-31.11,50.27,1.1.04,2.18.08,3.23.11l4.7.16c16.61-46.91,61.41-80.61,113.93-80.61,66.62,0,120.82,54.2,120.82,120.82s-54.2,120.82-120.82,120.82c-13.78,0-27.03-2.33-39.38-6.6-.41.1-.82.18-1.23.25-1.16.18-2.18.27-3.18.27h0c-2.1,0-4.04-.4-5.76-1.2l-7.27-3.36.73-.75c-1.57.77-3.18,1.43-4.82,1.99-.62.21-1.24.39-1.86.57,18.96,10.66,40.43,16.34,62.77,16.34,34.28,0,66.51-13.35,90.76-37.59,24.24-24.24,37.59-56.47,37.59-90.76s-13.35-66.51-37.59-90.76Z"/>
      <g>
        <path class="st1" d="M386.82,227.16c.15-1.92-1.79-3.63-4.34-3.82-6.72-.52-10.34.99-13.46,2.45,2.86,1.92,6.21,3.96,12.93,4.48,2.54.2,4.72-1.2,4.87-3.11Z"/>
        <path class="st7" d="M337.01,145.87c-48.86,0-90.5,30.93-106.4,74.28,1.88.07,4.04.16,6.31.31,1.33.09,2.46.18,3.58.29h.07s2.12.25,2.12.25l1.64.25c7.64,1.19,17.66,3.22,27.54,8.46,4.72,2.51,9.28,5.88,13.2,9.75,3.69,3.69,6.91,7.97,9.62,12.75.19.34.37.68.55,1.02,10.28-11.8,20.5-22.67,29.06-29.95,3.95-3.35,14.94-12.36,32.69-14.46,17.35-2.05,41.72,3.03,48.48,11.55,10.64.86,49.49,10.33,30.66,41.75-.06-3.28-1.01-7.15-3.76-7.65-2.48-.45-21.82-2.82-31.07.39-9.25,3.2-27.6,7.23-36.85,41.86-6.38,23.89-15.88,45.19-24.21,53.59,8.38,6.9,37.09,12.82,55.56,5.72,32.68-19.88,54.5-55.82,54.5-96.87,0-62.57-50.73-113.3-113.3-113.3Z"/>
      </g>
    </g>
    <g>
      <path class="st12" d="M296.01,280.45c-2.39-8.97-4.83-16.47-9-23.9-2.31-4.07-5.05-7.72-8.15-10.82-3.3-3.26-7.16-6.11-11.13-8.22-8.66-4.6-17.37-6.39-24.74-7.53l-1.55-.24-1.84-.21c-1-.1-2.04-.18-3.25-.26-2.02-.13-3.96-.21-6.24-.3l-12.06-.41c-12.98-.42-30.08-1.27-47.09-4.16-17.2-2.87-31.83-7.29-44.71-13.53-15.01-7.27-27.35-17.15-36.66-29.38-.93-1.21-1.84-2.46-2.73-3.76.66,1.4,1.36,2.77,2.1,4.12,7.37,13.85,19,26.05,33.66,35.32,12.74,8.15,27.71,14.39,45.8,19.08,7.77,1.97,15.94,3.62,24.26,4.9,7.62,1.15,15.6,2.11,24.39,2.91l12.02,1.04c3.89.36,7.89.74,11.15,1.41l.18.03c7.53,1.45,14.64,2.82,20.78,4.9,2.58.89,5.95,2.16,9.18,4.16,2.96,1.76,5.76,4.02,8.32,6.71,4.7,4.89,8.86,11.54,12.34,19.74l.03.08c4.18,10.43,9.76,23.48,17.17,36.11-1.84-4.32-3.64-9.11-5.51-14.62-2.37-7.08-4.57-14.66-6.7-23.17Z"/>
      <path class="st23" d="M244.72,264.11c-4.6-1.41-9.55-2.67-15.14-3.86-22.19-4.69-44.58-6.32-61.62-7.22l-3.8-.21c-1.08-.08-2.23-.16-3.47-.29-2.33-.24-4.72-.55-7.11-.92-4.78-.77-9.51-1.81-14.09-3.09-9.47-2.65-18.57-6.26-27.05-10.73-9.29-4.92-17.59-10.5-24.68-16.61-3.02-2.63-5.71-5.2-8.11-7.76,1.47,3.34,3.3,6.67,5.46,9.96,5.68,8.59,13.06,16.27,21.92,22.83,8.76,6.47,18.35,11.49,28.51,14.93,5.36,1.79,10.67,3.13,15.76,3.99,2.69.46,5.41.82,8.1,1.06,1.21.11,2.57.21,4.17.31l3.94.13c5.06.12,10.15.24,15.23.35,15.03.34,30.58.68,45.72,1.35,10.04.57,20.37,1.15,30.19,3.13,2.52.53,4.81,1.12,6.92,1.8-1.88-1.26-3.95-2.43-6.2-3.53-4.16-2.06-8.67-3.79-14.66-5.63Z"/>
      <path class="st17" d="M255.45,292.08c2.86,0,5.67.12,8.35.35,1.53.13,3.07.31,4.62.52-1.38-.68-2.78-1.3-4.2-1.87-7.31-2.94-15.61-4.75-24.66-5.37-2.7-.19-5.48-.29-8.29-.29-5.44,0-11.03.35-17.07,1.07-3.73.46-7.98,1.11-12.29,1.86-3.79.62-7.65,1.06-11.38,1.48l-.45.05c-6.83.64-13.53.97-19.91.97-9.33,0-18.42-.7-27.02-2.07-11.02-1.78-21.2-4.62-30.76-8.59,1.84,1.81,3.87,3.58,6.07,5.28,6.56,5.04,14.07,9.09,22.32,12,10.81,3.86,22.57,5.81,34.98,5.81,5.19,0,10.49-.35,15.75-1.04h.07c4.68-.54,9.2-1.46,12.62-2.2,2.03-.44,3.96-.91,5.83-1.37,1.96-.48,3.99-.98,6.05-1.42.68-.15,1.38-.3,2.08-.45,3.14-.68,6.39-1.38,9.64-1.92,3.41-.65,7.06-1.21,11.83-1.8,5.88-.68,11.05-1,15.85-1Z"/>
      <path class="st20" d="M274.12,310.28c1.24-.33,2.53-.63,3.89-.89-1.21-.35-2.46-.65-3.76-.89-5.2-.95-11.13-.91-17.59.12-5.47.89-11.02,2.44-16.96,4.74l-4,1.57-3.61,1.31c-2.38.82-4.86,1.58-7.57,2.34-9.81,2.63-20.12,4.42-31.56,5.48-5.56.5-11.13.75-16.56.75-1.46,0-3-.03-4.61-.09,1.24.74,2.56,1.45,4,2.14,4.94,2.36,10.55,4.1,16.68,5.16,4.31.74,8.73,1.12,13.15,1.12,7.46,0,14.9-1.06,22.11-3.14,2.91-.84,5.77-1.84,8.52-2.98,1.56-.64,2.84-1.22,4.16-1.87.6-.28,1.03-.51,1.46-.73l.5-.26c.39-.2.69-.37.98-.53.27-.15.53-.3.83-.45,5.34-2.88,10.09-5.26,14.51-7.26,5.69-2.58,10.61-4.37,15.45-5.63Z"/>
      <path class="st10" d="M285.74,323.14c-2.49.4-5.15,1.2-7.9,2.37-3.11,1.35-6.18,3.12-9.36,5.4l-2.09,1.53c-.68.51-1.17.83-1.69,1.17l-1.03.67c-1.15.75-2.35,1.52-3.62,2.24-5.5,3.13-11.42,5.93-18.1,8.53-2.94,1.12-5.67,2.07-8.29,2.89,1.76.27,3.63.41,5.56.41h0c1.07,0,2.17-.04,3.3-.13,7.19-.56,14.29-2.85,20.54-6.63,1.64-1.03,3.18-2,4.57-3.11.98-.77,1.75-1.4,2.21-1.81l1.41-1.26.46-.45c2.88-2.75,5.27-4.93,7.56-6.88,2.29-1.96,4.39-3.57,6.47-4.96Z"/>
      <path class="st21" d="M272.39,359.86c-1.13.89-2.23,1.73-3.31,2.53,1.26-.23,2.56-.57,3.92-1.03,4.8-1.61,9.25-4.49,12.87-8.31l.16-.17c.88-.97,1.71-1.89,2.39-2.85.22-.31.86-1.19,1.17-1.68l.61-.95c.03-.06.07-.13.12-.21l.2-.36c1.02-1.77,2.35-4.05,3.77-6.29.68-1.08,1.33-2.07,1.98-2.98-.95.55-1.92,1.19-2.88,1.93-1.9,1.47-3.7,3.24-5.48,5.39l-.57.69-.56.72c-.38.48-.66.79-.9,1.06-.09.1-.19.21-.29.33l-.08.09c-.19.21-.38.41-.56.62-.58.64-1.18,1.31-1.85,1.97-2.98,3.01-6.38,6.02-10.7,9.48Z"/>
      <path class="st5" d="M305.04,356.47c.43-.73.77-1.4,1.04-2.03l.05-.13c.12-.28.31-.76.37-.94l.22-.64c.03-.11.05-.21.09-.33l.98-3.58c-.74.91-1.43,1.94-2.03,3.06l-.08.15c-.08.14-.15.27-.22.4l-.19.38c-.2.4-.35.65-.46.83-.03.05-.06.1-.1.16l-.06.11-1.06,1.74c-1.47,2.31-3.06,4.6-4.59,6.81,2.44-1.39,4.52-3.45,6.02-5.98Z"/>
      <path class="st11" d="M319.73,358.17l-.04-.39s0-.04-.01-.05c-.02-.08-.04-.17-.05-.25,0,.03,0,.06-.01.1v.03c-.02.1-.03.2-.05.3l-.03.24c-.03.28-.07.47-.11.64l-.19,1.12c-.16.83-.28,1.64-.37,2.47.4-.75.66-1.6.79-2.5.06-.42.09-.82.09-1.22v-.1c0-.12,0-.27-.01-.39Z"/>
      <path class="st15" d="M356.52,204.74c2.71-.32,5.62-.48,8.66-.48,15.42,0,34.35,4.18,42.3,12.2,8.86,1.11,28.42,6.18,35.36,19.69.81,1.58,1.42,3.2,1.84,4.87-8.67-51.6-53.65-91.04-107.68-91.04-43.74,0-83.41,26.43-100.46,66.34.21.01.42.03.63.04,1.38.09,2.56.18,3.71.3l2.41.28,1.64.25c7.97,1.24,18.43,3.37,28.85,8.9,5.06,2.7,9.96,6.31,14.16,10.46,2.92,2.93,5.57,6.19,7.92,9.75,10.31-11.62,18.77-20.19,25.77-26.13,10.26-8.7,21.99-13.89,34.87-15.41Z"/>
      <path class="st2" d="M446.2,259.17c0-4.7-.3-9.33-.88-13.87.3,5.83-1.59,12.17-5.65,18.94l-7.38,12.32-.26-14.36c-.04-1.98-.46-3.26-.73-3.73-2.06-.32-9.09-1.14-16.17-1.14s-10.59.77-12.47,1.42c-.58.2-1.2.41-1.85.62-9.08,3.01-24.26,8.05-32.37,38.41-5.82,21.79-14.14,41.17-21.96,51.55,6.39,3.08,17.77,5.8,29.46,5.8,6.88,0,13.11-.97,18.06-2.81,32.69-20.04,52.2-54.83,52.2-93.15Z"/>
    </g>
  </g>
</svg>