<?xml version="1.0" encoding="UTF-8"?>
<svg id="Calque_1" xmlns="http://www.w3.org/2000/svg" version="1.1" xmlns:xlink="http://www.w3.org/1999/xlink" viewBox="0 0 2050.32 409.78">
  <!-- Generator: Adobe Illustrator 30.1.0, SVG Export Plug-In . SVG Version: 2.1.1 Build 136)  -->
  <defs>
    <style>
      .st0 {
        fill: url(#linear-gradient2);
      }

      .st1 {
        fill: url(#linear-gradient10);
      }

      .st2 {
        fill: url(#linear-gradient21);
      }

      .st3 {
        fill: url(#linear-gradient1);
      }

      .st4 {
        fill: url(#linear-gradient9);
      }

      .st5 {
        fill: url(#linear-gradient18);
      }

      .st6 {
        font-family: Baskerville, Baskerville;
        font-size: 162.61px;
        letter-spacing: .05em;
      }

      .st6, .st7 {
        fill: #010101;
      }

      .st8 {
        fill: url(#linear-gradient8);
      }

      .st9 {
        fill: url(#linear-gradient11);
      }

      .st10 {
        fill: url(#linear-gradient16);
      }

      .st11 {
        fill: url(#linear-gradient19);
      }

      .st12 {
        fill: url(#linear-gradient12);
      }

      .st13 {
        fill: url(#Nouvelle_nuance_de_dégradé_3);
      }

      .st14 {
        fill: url(#linear-gradient7);
      }

      .st15 {
        fill: url(#linear-gradient20);
      }

      .st16 {
        fill: url(#linear-gradient4);
      }

      .st17 {
        fill: url(#linear-gradient14);
      }

      .st18 {
        fill: url(#linear-gradient5);
      }

      .st19 {
        fill: url(#linear-gradient3);
      }

      .st20 {
        fill: url(#linear-gradient15);
      }

      .st21 {
        fill: url(#linear-gradient17);
      }

      .st22 {
        fill: url(#linear-gradient6);
      }

      .st23 {
        fill: url(#linear-gradient13);
      }

      .st24 {
        fill: url(#linear-gradient);
      }
    </style>
    <linearGradient id="linear-gradient" x1="1232.16" y1="130.52" x2="1233.42" y2="294.96" gradientUnits="userSpaceOnUse">
      <stop offset="0" stop-color="#fef8ce"/>
      <stop offset=".07" stop-color="#ec9e28"/>
      <stop offset=".28" stop-color="#eed688"/>
      <stop offset=".31" stop-color="#efda90"/>
      <stop offset=".48" stop-color="#faefbc"/>
      <stop offset=".57" stop-color="#fef8ce"/>
      <stop offset=".76" stop-color="#c3932e"/>
      <stop offset="1" stop-color="#fef8ce"/>
    </linearGradient>
    <linearGradient id="Nouvelle_nuance_de_dégradé_3" data-name="Nouvelle nuance de dégradé 3" x1="999.8" y1="-29.22" x2="1418.57" y2="410.86" gradientUnits="userSpaceOnUse">
      <stop offset=".03" stop-color="#c3932e"/>
      <stop offset=".49" stop-color="#fef8ce"/>
      <stop offset=".54" stop-color="#faefbc"/>
      <stop offset=".63" stop-color="#efda90"/>
      <stop offset=".65" stop-color="#eed688"/>
      <stop offset=".85" stop-color="#ec9e28"/>
      <stop offset="1" stop-color="#c3932e"/>
    </linearGradient>
    <linearGradient id="linear-gradient1" x1="69.23" y1="185.23" x2="470.24" y2="185.23" gradientUnits="userSpaceOnUse">
      <stop offset="0" stop-color="#b7854d"/>
      <stop offset=".15" stop-color="#f5d98f"/>
      <stop offset=".3" stop-color="#fdf6b7"/>
      <stop offset=".52" stop-color="#f5d88e"/>
      <stop offset=".64" stop-color="#fcf5b7"/>
      <stop offset=".75" stop-color="#d4b067"/>
      <stop offset=".85" stop-color="#bd9149"/>
      <stop offset="1" stop-color="#b7854d"/>
    </linearGradient>
    <linearGradient id="linear-gradient2" x1="69.23" y1="181.99" x2="470.24" y2="181.99" xlink:href="#linear-gradient1"/>
    <linearGradient id="linear-gradient3" x1="69.23" y1="228.51" x2="470.24" y2="228.51" xlink:href="#linear-gradient1"/>
    <linearGradient id="linear-gradient4" x1="69.23" y1="260.84" x2="470.24" y2="260.84" xlink:href="#linear-gradient1"/>
    <linearGradient id="linear-gradient5" x1="69.23" y1="275.97" x2="470.24" y2="275.97" xlink:href="#linear-gradient1"/>
    <linearGradient id="linear-gradient6" x1="69.23" y1="289.41" x2="470.24" y2="289.41" xlink:href="#linear-gradient1"/>
    <linearGradient id="linear-gradient7" x1="69.23" y1="294.97" x2="470.24" y2="294.97" xlink:href="#linear-gradient1"/>
    <linearGradient id="linear-gradient8" x1="69.23" y1="299.68" x2="470.24" y2="299.68" xlink:href="#linear-gradient1"/>
    <linearGradient id="linear-gradient9" x1="69.23" y1="199.54" x2="470.24" y2="199.54" xlink:href="#linear-gradient1"/>
    <linearGradient id="linear-gradient10" x1="69.23" y1="167.14" x2="470.24" y2="167.14" xlink:href="#linear-gradient1"/>
    <linearGradient id="linear-gradient11" x1="69.23" y1="192.92" x2="470.24" y2="192.92" xlink:href="#linear-gradient1"/>
    <linearGradient id="linear-gradient12" x1="86.86" y1="188.35" x2="308.22" y2="188.35" gradientUnits="userSpaceOnUse">
      <stop offset="0" stop-color="#b7854d"/>
      <stop offset=".15" stop-color="#f5d98f"/>
      <stop offset=".3" stop-color="#fdf6b7"/>
      <stop offset=".52" stop-color="#f5d88e"/>
      <stop offset=".68" stop-color="#fcf5b7"/>
      <stop offset=".84" stop-color="#d4b067"/>
      <stop offset="1" stop-color="#b7854d"/>
    </linearGradient>
    <linearGradient id="linear-gradient13" x1="79.65" y1="183.72" x2="265.57" y2="183.72" xlink:href="#linear-gradient12"/>
    <linearGradient id="linear-gradient14" x1="112.36" y1="232.11" x2="268.41" y2="232.11" xlink:href="#linear-gradient12"/>
    <linearGradient id="linear-gradient15" x1="171.78" y1="260.84" x2="278.01" y2="260.84" xlink:href="#linear-gradient12"/>
    <linearGradient id="linear-gradient16" x1="233.66" y1="276.12" x2="285.74" y2="276.12" xlink:href="#linear-gradient12"/>
    <linearGradient id="linear-gradient17" x1="269.08" y1="290.34" x2="296.26" y2="290.34" xlink:href="#linear-gradient12"/>
    <linearGradient id="linear-gradient18" x1="299.02" y1="296" x2="307.8" y2="296" xlink:href="#linear-gradient12"/>
    <linearGradient id="linear-gradient19" x1="318.86" y1="300.3" x2="319.74" y2="300.3" xlink:href="#linear-gradient12"/>
    <linearGradient id="linear-gradient20" x1="236.55" y1="138.5" x2="444.69" y2="138.5" xlink:href="#linear-gradient12"/>
    <linearGradient id="linear-gradient21" x1="346.48" y1="240.58" x2="446.2" y2="240.58" xlink:href="#linear-gradient12"/>
  </defs>
  <g>
    <text class="st6" transform="translate(510.97 265.39)"><tspan x="0" y="0">SL FORMATIONS</tspan></text>
    <g>
      <path class="st24" d="M563.77,268.01c-11.67,0-21.57-4.43-29.46-13.17-1.47,2.36-2.59,5.57-3.34,9.55l-.1.52h-5.13v-35.89h5.13l.1.51c4.41,22.1,14.96,33.31,31.37,33.31,7.35,0,13.12-2.11,17.13-6.28,4.02-4.17,6.06-8.9,6.06-14.05s-1.78-9.62-5.29-13.13c-3.58-3.52-10.24-7.38-19.81-11.46-8.62-3.7-15.22-6.99-19.62-9.77-4.46-2.82-8-6.55-10.5-11.07-2.5-4.52-3.77-9.41-3.77-14.52,0-7.82,2.75-14.43,8.17-19.63,5.42-5.2,12.36-7.84,20.65-7.84,4.6,0,9,.76,13.08,2.26,3.94,1.45,8.02,4.42,12.13,8.83,2.06-2.64,3.24-5.51,3.53-8.53l.05-.58h4.71v29.46h-4.63l-.12-.48c-1.97-8.04-5.5-14.45-10.49-19.06-4.96-4.58-10.79-6.9-17.31-6.9-6.18,0-10.76,1.68-13.61,4.98-2.87,3.33-4.33,7.02-4.33,10.98,0,4.77,1.83,8.86,5.43,12.15,3.64,3.44,10.34,7.35,19.92,11.64,9.24,4.12,16.06,7.48,20.27,10,4.28,2.56,7.77,6.15,10.35,10.67,2.58,4.52,3.89,9.81,3.89,15.72,0,9.35-3.17,17.07-9.41,22.93-6.23,5.86-14.66,8.83-25.05,8.83Z"/>
      <path class="st24" d="M617.16,266.03v-4.93h3.81c4.46,0,7.56-.55,9.22-1.64,1.64-1.08,2.67-2.72,3.14-5.03.49-2.41.74-8.15.74-17.06v-52.8c0-8.49-.25-14.03-.74-16.47-.46-2.29-1.43-3.89-2.88-4.74-1.51-.89-4.96-1.34-10.28-1.34h-3.02v-4.93h52.96v4.93h-5.4c-5.16,0-8.56.42-10.1,1.24-1.49.79-2.46,2.25-2.97,4.47-.54,2.32-.82,7.99-.82,16.85v56.37c0,7.7.21,12.57.62,14.47.39,1.79,1.42,3.15,3.15,4.15,1.77,1.02,5.74,1.54,11.79,1.54h8.18c6.51,0,11.39-.57,14.51-1.71,3.07-1.11,6.04-3.6,8.83-7.4,2.83-3.84,5.45-10.05,7.8-18.45l.13-.47h4.87l-.83,32.95h-92.72Z"/>
      <path class="st24" d="M772.2,266.03v-4.93h3.97c4.46,0,7.56-.55,9.22-1.64,1.64-1.08,2.67-2.72,3.14-5.03.49-2.41.74-8.15.74-17.06v-52.8c0-8.49-.25-14.03-.74-16.47-.46-2.29-1.43-3.89-2.88-4.74-1.51-.89-4.97-1.34-10.28-1.34h-2.54v-4.93h84.3l.92,28.11h-4.95l-.07-.56c-.73-5.75-2.36-10.56-4.86-14.29-2.48-3.7-5.08-6.03-7.73-6.94-2.73-.93-7.44-1.4-14.01-1.4h-20.4v44.38h9.45c6.3,0,10.52-1.04,12.53-3.1,2.01-2.06,3.04-6.36,3.04-12.77v-.64h5.24v39.23h-5.24v-.64c0-4.51-.46-8.11-1.35-10.71-.87-2.5-2.16-4.23-3.83-5.12-1.73-.92-5.22-1.39-10.38-1.39h-9.45v26.12c0,8.4.21,13.96.63,16.53.39,2.44,1.39,4.26,2.96,5.43,1.6,1.18,4.82,1.78,9.59,1.78h4.29v4.93h-51.29Z"/>
      <path class="st24" d="M933.09,268.01c-17.18,0-31.49-5.27-42.52-15.66-11.04-10.4-16.63-24.37-16.63-41.51s5.68-30.35,16.88-40.49c11.19-10.12,25.33-15.25,42.03-15.25s31.15,5.08,42.46,15.09c11.34,10.03,17.09,23.9,17.09,41.21s-5.5,30.55-16.35,40.95c-10.84,10.39-25.3,15.66-42.96,15.66ZM932.93,160.35c-12.7,0-22.57,4.31-29.31,12.82-6.78,8.55-10.22,21.41-10.22,38.23s3.44,30.06,10.22,38.59c6.75,8.48,17.04,12.78,30.59,12.78,11.86,0,21.37-4.3,28.25-12.79,6.91-8.52,10.42-21.45,10.42-38.42s-3.46-29.31-10.27-38.08c-6.78-8.71-16.76-13.13-29.67-13.13Z"/>
      <path class="st24" d="M1097.2,266.03l-.16-.12c-5.17-3.63-13.16-13.19-23.74-28.42-3.36-4.83-6.91-9.54-10.53-13.97-3.6-4.41-6.09-7.12-7.42-8.06-1.26-.9-3.3-1.35-6.06-1.35h-3.65v23.26c0,8.39.2,13.96.59,16.54.37,2.44,1.35,4.26,2.92,5.42,1.6,1.18,4.8,1.78,9.51,1.78h5.8v4.93h-52.8v-4.93h4.13c4.46,0,7.56-.55,9.22-1.64,1.64-1.08,2.65-2.72,3.1-5.03.47-2.41.7-8.15.7-17.07v-52.8c0-8.49-.24-14.04-.7-16.47-.44-2.29-1.4-3.88-2.87-4.73-1.54-.89-5.01-1.34-10.32-1.34h-2.46v-4.89l16.01-.83c10.23-.47,18.46-.71,24.49-.71,10.28,0,18.77.97,25.23,2.88,6.51,1.93,11.86,5.14,15.89,9.55,4.06,4.44,6.12,9.82,6.12,15.99,0,7.19-2.68,13.41-7.98,18.48-4.94,4.74-12.13,7.83-21.38,9.21,4.63,3.09,11.31,10.56,20.34,22.74,8.08,10.85,14.49,18.05,19.08,21.38,4.53,3.3,9.97,5.07,16.16,5.28l.62.02v4.91h-29.82ZM1045.63,209.16c3.75-.1,7.66-.26,11.64-.46,4.16-.21,7.82-.79,10.88-1.72,3.01-.92,5.48-2.27,7.33-4.02,1.85-1.75,3.33-4.09,4.41-6.95,1.08-2.88,1.63-6.49,1.63-10.73,0-7.38-1.86-13.36-5.53-17.77-3.64-4.38-11.8-6.6-24.24-6.6-1.77,0-3.83.09-6.11.27v47.98Z"/>
      <path class="st24" d="M1230.42,266.03v-4.93h4.45c4.4,0,7.48-.55,9.14-1.64,1.64-1.08,2.67-2.72,3.14-5.03.49-2.41.74-8.15.74-17.06v-65.5l-41.58,94.16h-4.56l-41.9-94.19v60.04c0,8.55.26,14.45.79,17.52.5,2.96,2.08,5.6,4.71,7.84,2.63,2.25,6.41,3.55,11.22,3.86l.6.04v4.89h-39.78v-4.89l.6-.03c4.45-.26,8.11-1.48,10.88-3.64,2.75-2.14,4.45-4.81,5.05-7.92.62-3.23.94-9.33.94-18.14v-46.84c0-8.49-.25-14.03-.74-16.47-.46-2.29-1.43-3.89-2.88-4.74-1.51-.89-4.97-1.34-10.28-1.34h-3.57v-4.93h33.84l39.04,88.14,38.81-88.14h34.08v4.93h-4.61c-5.16,0-8.56.42-10.1,1.24-1.49.79-2.46,2.25-2.97,4.47-.54,2.32-.82,7.99-.82,16.85v52.8c0,8.4.21,13.96.63,16.53.39,2.44,1.39,4.26,2.96,5.43,1.6,1.18,4.8,1.78,9.51,1.78h5.4v4.93h-52.72Z"/>
      <path class="st24" d="M1361.93,266.03v-4.93h.64c5.08,0,8.54-.37,10.27-1.1,1.58-.66,2.35-1.96,2.35-3.98,0-.74-.62-3.09-3.6-10.15l-8.1-19.54h-40.04l-2.62,6.43c-4.08,9.78-6.15,16.22-6.15,19.13s1,5.28,3.04,6.84c2.07,1.57,4.79,2.37,8.07,2.37h.64v4.93h-33.27v-4.83l.54-.08c4.59-.71,8.04-2.34,10.26-4.84,2.27-2.55,5.06-8.06,8.3-16.36.26-.79,1.51-3.82,3.82-9.23l31.45-75.1h3.94l36.13,85.9,4.92,11.27c1.06,2.43,2.51,4.36,4.29,5.75,1.77,1.38,4.51,2.25,8.13,2.61l.57.06v4.87h-43.59ZM1361.61,221.48l-18.1-43.59-18.03,43.59h36.12Z"/>
      <path class="st24" d="M1429.21,266.03v-4.93h6.19c4.46,0,7.56-.55,9.22-1.64,1.64-1.08,2.67-2.72,3.14-5.03.49-2.41.74-8.15.74-17.06v-75.35h-15.32c-6.84,0-11.49.33-13.8.97-2.21.62-4.35,2.54-6.34,5.72-2.04,3.25-3.62,8.3-4.71,15.01l-.09.53h-4.84l.58-27.16h105.73l.58,27.16h-4.6l-.09-.53c-1.2-6.97-2.85-12.06-4.9-15.12-2.02-3.01-4.2-4.87-6.48-5.54-2.37-.69-6.5-1.05-12.29-1.05h-16.67v75.35c0,8.35.2,13.9.59,16.5.37,2.46,1.37,4.29,2.96,5.45,1.63,1.18,4.81,1.78,9.47,1.78h5.88v4.93h-54.95Z"/>
      <path class="st24" d="M1525.08,266.03v-4.93h3.81c4.46,0,7.56-.55,9.22-1.64,1.64-1.08,2.65-2.72,3.1-5.03.47-2.41.7-8.15.7-17.07v-52.8c0-8.49-.24-14.04-.7-16.47-.44-2.29-1.4-3.88-2.87-4.73-1.53-.89-5.01-1.34-10.32-1.34h-2.94v-4.93h50.5v4.93h-2.94c-5.16,0-8.56.42-10.1,1.24-1.49.79-2.46,2.25-2.97,4.47-.54,2.32-.82,7.99-.82,16.85v52.8c0,8.4.2,13.96.59,16.54.37,2.44,1.35,4.26,2.92,5.42,1.6,1.18,4.8,1.78,9.51,1.78h3.81v4.93h-50.5Z"/>
      <path class="st24" d="M1654.05,268.01c-17.18,0-31.49-5.27-42.52-15.66-11.04-10.4-16.63-24.37-16.63-41.51s5.68-30.35,16.88-40.49c11.19-10.12,25.33-15.25,42.03-15.25s31.15,5.08,42.46,15.09c11.34,10.03,17.09,23.9,17.09,41.21s-5.5,30.55-16.35,40.95c-10.84,10.39-25.3,15.66-42.96,15.66ZM1653.89,160.35c-12.7,0-22.57,4.31-29.31,12.82-6.78,8.55-10.22,21.41-10.22,38.23s3.44,30.06,10.22,38.59c6.75,8.48,17.04,12.78,30.59,12.78,11.86,0,21.37-4.3,28.25-12.79,6.91-8.52,10.42-21.45,10.42-38.42s-3.46-29.31-10.27-38.08c-6.78-8.71-16.76-13.13-29.67-13.13Z"/>
      <path class="st24" d="M1828.92,268.49l-75.19-99.65v72.81c0,6.1.3,10.15.88,12.04.56,1.79,2.21,3.49,4.91,5.04,2.75,1.58,6.97,2.38,12.54,2.38h.64v4.93h-41.45v-4.88l.59-.04c5.01-.36,8.88-1.28,11.49-2.74,2.53-1.42,4.05-2.93,4.5-4.5.48-1.68.73-5.79.73-12.21v-57.09c0-8.16-.38-13.68-1.13-16.43-.71-2.61-1.83-4.29-3.31-4.99-1.57-.75-5.24-1.13-10.88-1.13h-.64v-4.93h32.71l62.8,82.98v-62.49c0-4.64-.47-7.91-1.4-9.71-.9-1.75-2.8-3.17-5.65-4.22-2.93-1.08-6.52-1.63-10.66-1.63h-.64v-4.93h40.34v4.88l-.58.05c-4.45.36-7.98,1.22-10.51,2.55-2.46,1.29-4.04,2.85-4.7,4.62-.68,1.85-1.03,5.08-1.03,9.58v89.72h-4.37Z"/>
      <path class="st24" d="M1905.96,268.01c-11.67,0-21.57-4.43-29.46-13.17-1.47,2.36-2.59,5.57-3.34,9.55l-.1.52h-5.13v-35.89h5.13l.1.51c4.41,22.1,14.96,33.31,31.37,33.31,7.35,0,13.12-2.11,17.13-6.28,4.02-4.17,6.06-8.9,6.06-14.05s-1.78-9.62-5.29-13.13c-3.58-3.52-10.24-7.38-19.81-11.46-8.62-3.7-15.22-6.99-19.62-9.77-4.46-2.82-8-6.55-10.5-11.07-2.5-4.52-3.77-9.41-3.77-14.52,0-7.82,2.75-14.43,8.17-19.63,5.42-5.2,12.36-7.84,20.65-7.84,4.6,0,9,.76,13.08,2.26,3.94,1.45,8.02,4.42,12.13,8.83,2.06-2.64,3.24-5.51,3.53-8.53l.05-.58h4.71v29.46h-4.63l-.12-.48c-1.97-8.04-5.5-14.45-10.49-19.06-4.96-4.58-10.79-6.9-17.31-6.9-6.18,0-10.76,1.68-13.61,4.98-2.87,3.33-4.33,7.02-4.33,10.98,0,4.77,1.83,8.86,5.43,12.15,3.64,3.44,10.34,7.35,19.92,11.64,9.24,4.12,16.06,7.48,20.27,10,4.28,2.56,7.77,6.15,10.35,10.67,2.58,4.52,3.89,9.81,3.89,15.72,0,9.35-3.17,17.07-9.41,22.93-6.23,5.86-14.66,8.83-25.05,8.83Z"/>
    </g>
    <g>
      <path class="st13" d="M526.37,264.28v-34.62h3.97c4.5,22.55,15.17,33.82,32,33.82,7.57,0,13.43-2.16,17.59-6.47,4.16-4.31,6.23-9.14,6.23-14.49s-1.83-9.92-5.48-13.58c-3.65-3.6-10.32-7.46-20.01-11.59-8.63-3.7-15.14-6.95-19.53-9.73-4.39-2.78-7.82-6.39-10.28-10.84-2.46-4.45-3.69-9.18-3.69-14.21,0-7.67,2.66-14.07,7.98-19.17,5.32-5.11,12.05-7.66,20.21-7.66,4.55,0,8.84.74,12.86,2.22,4.02,1.48,8.15,4.55,12.39,9.21,2.43-2.91,3.81-6.06,4.13-9.45h3.49v28.19h-3.49c-2.01-8.2-5.57-14.66-10.68-19.37-5.11-4.71-11.02-7.07-17.75-7.07s-11.1,1.73-14.09,5.2c-2.99,3.47-4.49,7.27-4.49,11.39,0,4.98,1.88,9.18,5.64,12.62,3.71,3.49,10.4,7.41,20.09,11.75,9.26,4.13,16,7.45,20.21,9.96,4.21,2.51,7.58,5.99,10.12,10.44,2.54,4.45,3.81,9.58,3.81,15.4,0,9.21-3.07,16.7-9.21,22.47-6.14,5.77-14.34,8.65-24.61,8.65-11.8,0-21.65-4.53-29.54-13.58-1.75,2.49-3.04,5.98-3.89,10.48h-3.97Z"/>
      <path class="st13" d="M710.05,233.71l-.79,31.68h-91.46v-3.65h3.18c4.6,0,7.79-.58,9.57-1.75,1.77-1.16,2.91-2.98,3.41-5.44.5-2.46.75-8.19.75-17.19v-52.8c0-8.58-.25-14.11-.75-16.59-.5-2.49-1.56-4.21-3.18-5.16-1.62-.95-5.15-1.43-10.6-1.43h-2.38v-3.65h51.69v3.65h-4.76c-5.29,0-8.76.44-10.4,1.31-1.64.87-2.74,2.5-3.29,4.88s-.83,8.05-.83,16.99v56.37c0,7.78.21,12.65.63,14.61.42,1.96,1.58,3.48,3.45,4.57,1.88,1.09,5.92,1.63,12.11,1.63h8.18c6.62,0,11.53-.58,14.73-1.75,3.2-1.16,6.25-3.7,9.13-7.62,2.88-3.92,5.52-10.14,7.9-18.66h3.73Z"/>
      <path class="st13" d="M856.52,157.73l.87,26.84h-3.73c-.74-5.88-2.4-10.73-4.96-14.57-2.57-3.84-5.25-6.23-8.06-7.19-2.81-.95-7.54-1.43-14.21-1.43h-21.04v45.65h10.08c6.51,0,10.84-1.1,12.98-3.29,2.14-2.2,3.22-6.6,3.22-13.22h3.97v37.95h-3.97c0-4.61-.46-8.24-1.39-10.92-.93-2.67-2.3-4.5-4.13-5.48-1.83-.98-5.39-1.47-10.68-1.47h-10.08v26.76c0,8.47.21,14.01.64,16.63.42,2.62,1.5,4.57,3.22,5.84,1.72,1.27,5.04,1.91,9.96,1.91h3.65v3.65h-50.02v-3.65h3.33c4.61,0,7.79-.58,9.57-1.75,1.77-1.16,2.91-2.98,3.41-5.44.5-2.46.75-8.19.75-17.19v-52.8c0-8.58-.25-14.11-.75-16.59-.5-2.49-1.56-4.21-3.18-5.16-1.62-.95-5.15-1.43-10.6-1.43h-1.91v-3.65h83.05Z"/>
      <path class="st13" d="M874.58,210.85c0-16.62,5.56-29.96,16.67-40.02,11.12-10.06,24.98-15.09,41.6-15.09s30.79,4.98,42.04,14.93c11.25,9.95,16.87,23.53,16.87,40.73s-5.39,30.17-16.16,40.49-24.94,15.48-42.52,15.48-31.12-5.16-42.08-15.48c-10.96-10.32-16.43-24-16.43-41.05ZM892.76,211.4c0,17.31,3.45,30.3,10.36,38.98,6.91,8.68,17.27,13.02,31.08,13.02,12.12,0,21.7-4.34,28.74-13.02,7.04-8.68,10.56-21.62,10.56-38.83s-3.47-29.55-10.4-38.47c-6.93-8.92-16.99-13.38-30.17-13.38s-22.91,4.35-29.81,13.06c-6.91,8.71-10.36,21.58-10.36,38.63Z"/>
      <path class="st13" d="M1126.38,265.39h-28.98c-5.13-3.6-13-13.02-23.58-28.27-3.39-4.87-6.91-9.54-10.56-14.01-3.65-4.47-6.17-7.2-7.54-8.18-1.38-.98-3.52-1.47-6.43-1.47h-4.29v23.9c0,8.47.2,14.01.6,16.63.4,2.62,1.46,4.57,3.18,5.84,1.72,1.27,5.01,1.91,9.88,1.91h5.16v3.65h-51.53v-3.65h3.49c4.61,0,7.79-.58,9.57-1.75,1.77-1.16,2.9-2.98,3.37-5.44.48-2.46.71-8.19.71-17.19v-52.8c0-8.58-.24-14.11-.71-16.59-.48-2.49-1.54-4.21-3.18-5.16s-5.19-1.43-10.64-1.43h-1.83v-3.65l15.4-.79c10.27-.48,18.42-.71,24.46-.71,10.27,0,18.62.95,25.05,2.86,6.43,1.91,11.63,5.03,15.6,9.37,3.97,4.34,5.95,9.53,5.95,15.56,0,7.04-2.59,13.05-7.78,18.02-5.19,4.98-12.81,8.07-22.87,9.29,4.5,2.17,11.75,10,21.75,23.5,8.15,10.96,14.56,18.13,19.21,21.52,4.66,3.39,10.16,5.19,16.51,5.4v3.65ZM1044.99,209.81c3.97-.11,8.07-.26,12.31-.48,4.23-.21,7.91-.79,11.04-1.75,3.12-.95,5.65-2.34,7.58-4.17,1.93-1.83,3.45-4.22,4.57-7.19,1.11-2.96,1.67-6.62,1.67-10.96,0-7.57-1.89-13.63-5.68-18.18-3.79-4.55-12.03-6.83-24.73-6.83-1.96,0-4.21.11-6.75.32v49.23Z"/>
      <path class="st13" d="M1210.25,246.81l39.22-89.08h33.03v3.65h-3.97c-5.29,0-8.76.44-10.4,1.31-1.64.87-2.74,2.5-3.29,4.88s-.83,8.05-.83,16.99v52.8c0,8.47.21,14.01.64,16.63.42,2.62,1.5,4.57,3.22,5.84,1.72,1.27,5.01,1.91,9.88,1.91h4.76v3.65h-51.45v-3.65h3.81c4.55,0,7.71-.58,9.49-1.75,1.77-1.16,2.91-2.98,3.41-5.44.5-2.46.75-8.19.75-17.19v-68.52l-42.64,96.55h-3.73l-42.95-96.55v63.04c0,8.63.26,14.5.79,17.63.53,3.12,2.17,5.86,4.92,8.22,2.75,2.36,6.62,3.69,11.59,4.01v3.65h-38.51v-3.65c4.61-.26,8.35-1.52,11.23-3.77,2.88-2.25,4.65-5.01,5.28-8.3.63-3.28.95-9.37.95-18.26v-46.84c0-8.58-.25-14.11-.75-16.59-.5-2.49-1.56-4.21-3.18-5.16-1.62-.95-5.15-1.43-10.6-1.43h-2.94v-3.65h32.79l39.46,89.08Z"/>
      <path class="st13" d="M1363.92,225.69h-40.89l-2.78,6.83c-4.13,9.9-6.19,16.36-6.19,19.37,0,3.23,1.1,5.68,3.3,7.34,2.2,1.67,5.01,2.5,8.46,2.5v3.65h-32v-3.65c4.76-.74,8.31-2.42,10.64-5.04,2.33-2.62,5.13-8.14,8.42-16.55.26-.79,1.53-3.86,3.81-9.21l31.28-74.71h3.1l35.97,85.51,4.92,11.27c1.11,2.54,2.61,4.54,4.49,5.99,1.88,1.46,4.7,2.37,8.46,2.74v3.65h-42.32v-3.65c5.19,0,8.69-.38,10.52-1.15,1.83-.77,2.74-2.29,2.74-4.56,0-1.16-1.22-4.63-3.65-10.4l-8.26-19.93ZM1362.57,222.12l-19.05-45.89-18.98,45.89h38.03Z"/>
      <path class="st13" d="M1407.7,183.61h-3.65l.56-25.88h104.49l.56,25.88h-3.41c-1.22-7.09-2.89-12.21-5-15.36-2.12-3.15-4.39-5.08-6.83-5.8-2.44-.71-6.59-1.07-12.46-1.07h-17.31v75.98c0,8.42.2,13.95.59,16.59.4,2.65,1.47,4.6,3.22,5.88,1.75,1.27,5.03,1.91,9.85,1.91h5.24v3.65h-53.67v-3.65h5.56c4.61,0,7.79-.58,9.57-1.75,1.77-1.16,2.91-2.98,3.41-5.44.5-2.46.75-8.19.75-17.19v-75.98h-15.96c-6.93,0-11.59.33-13.97.99-2.38.66-4.62,2.66-6.71,5.99-2.09,3.33-3.69,8.42-4.8,15.24Z"/>
      <path class="st13" d="M1525.71,161.38v-3.65h49.23v3.65h-2.3c-5.29,0-8.76.44-10.4,1.31s-2.74,2.5-3.29,4.88-.83,8.05-.83,16.99v52.8c0,8.47.2,14.01.59,16.63.4,2.62,1.46,4.57,3.18,5.84,1.72,1.27,5.01,1.91,9.89,1.91h3.18v3.65h-49.23v-3.65h3.18c4.61,0,7.79-.58,9.57-1.75,1.77-1.16,2.9-2.98,3.37-5.44.48-2.46.71-8.19.71-17.19v-52.8c0-8.58-.24-14.11-.71-16.59-.48-2.49-1.54-4.21-3.18-5.16s-5.19-1.43-10.64-1.43h-2.3Z"/>
      <path class="st13" d="M1595.54,210.85c0-16.62,5.56-29.96,16.67-40.02,11.12-10.06,24.98-15.09,41.6-15.09s30.79,4.98,42.04,14.93c11.25,9.95,16.87,23.53,16.87,40.73s-5.39,30.17-16.16,40.49-24.94,15.48-42.52,15.48-31.12-5.16-42.08-15.48c-10.96-10.32-16.43-24-16.43-41.05ZM1613.72,211.4c0,17.31,3.45,30.3,10.36,38.98,6.91,8.68,17.27,13.02,31.08,13.02,12.12,0,21.7-4.34,28.74-13.02,7.04-8.68,10.56-21.62,10.56-38.83s-3.47-29.55-10.4-38.47c-6.93-8.92-16.99-13.38-30.17-13.38s-22.91,4.35-29.81,13.06c-6.91,8.71-10.36,21.58-10.36,38.63Z"/>
      <path class="st13" d="M1829.23,267.85l-76.14-100.91v74.71c0,6.19.3,10.27.91,12.23.61,1.96,2.34,3.76,5.2,5.4,2.86,1.64,7.15,2.46,12.86,2.46v3.65h-40.17v-3.65c5.13-.37,9.05-1.31,11.75-2.82,2.7-1.51,4.3-3.14,4.8-4.88.5-1.75.75-5.88.75-12.39v-57.09c0-8.26-.38-13.79-1.15-16.59-.77-2.8-1.99-4.6-3.65-5.4-1.67-.79-5.39-1.19-11.16-1.19v-3.65h31.76l63.76,84.24v-64.39c0-4.76-.49-8.1-1.47-10-.98-1.91-2.98-3.41-6-4.53-3.02-1.11-6.64-1.67-10.88-1.67v-3.65h39.06v3.65c-4.55.37-8.14,1.24-10.76,2.62-2.62,1.38-4.29,3.03-5,4.96-.71,1.93-1.07,5.2-1.07,9.81v89.08h-3.41Z"/>
      <path class="st13" d="M1868.57,264.28v-34.62h3.97c4.5,22.55,15.17,33.82,32,33.82,7.57,0,13.43-2.16,17.59-6.47,4.16-4.31,6.23-9.14,6.23-14.49s-1.83-9.92-5.48-13.58c-3.65-3.6-10.32-7.46-20.01-11.59-8.63-3.7-15.14-6.95-19.53-9.73-4.39-2.78-7.82-6.39-10.28-10.84-2.46-4.45-3.69-9.18-3.69-14.21,0-7.67,2.66-14.07,7.98-19.17,5.32-5.11,12.05-7.66,20.21-7.66,4.55,0,8.84.74,12.86,2.22,4.02,1.48,8.15,4.55,12.39,9.21,2.43-2.91,3.81-6.06,4.13-9.45h3.49v28.19h-3.49c-2.01-8.2-5.57-14.66-10.68-19.37-5.11-4.71-11.02-7.07-17.75-7.07s-11.1,1.73-14.09,5.2c-2.99,3.47-4.49,7.27-4.49,11.39,0,4.98,1.88,9.18,5.64,12.62,3.71,3.49,10.4,7.41,20.09,11.75,9.26,4.13,16,7.45,20.21,9.96,4.21,2.51,7.58,5.99,10.12,10.44,2.54,4.45,3.81,9.58,3.81,15.4,0,9.21-3.07,16.7-9.21,22.47-6.14,5.77-14.34,8.65-24.61,8.65-11.8,0-21.65-4.53-29.54-13.58-1.75,2.49-3.04,5.98-3.89,10.48h-3.97Z"/>
    </g>
  </g>
  <g>
    <g>
      <g>
        <path class="st7" d="M336.46,293.5c-.22-.14-.45-.28-.67-.43-3.27-2.15-6.22-4.7-8.88-7.53-5.29-5.73-9.42-12.45-12.95-19.45-3.54-7.01-6.36-14.4-8.89-21.88-2.52-7.53-4.65-15.06-6.62-22.88-2.19-8.23-4.75-16.59-9.39-24.88-2.33-4.11-5.26-8.14-8.83-11.72-3.59-3.54-7.75-6.63-12.11-8.95-8.79-4.66-17.72-6.68-26.04-7.97l-1.64-.25-1.95-.22c-1.19-.12-2.32-.2-3.42-.27-2.19-.14-4.28-.23-6.34-.31l-12.08-.41c-15.84-.51-31.35-1.53-46.54-4.1-15.17-2.53-30-6.59-43.61-13.18-13.58-6.57-25.84-15.9-35.17-28.16-4.7-6.1-8.56-12.93-11.79-20.14-3.18-7.24-5.61-14.91-7.49-22.8.07,16.18,3.65,32.82,11.76,47.76,7.98,15,20.59,27.67,35.08,36.84,14.5,9.28,30.67,15.36,46.96,19.58,8.18,2.07,16.41,3.71,24.66,4.98,8.24,1.25,16.49,2.2,24.64,2.95l12.04,1.04c3.94.37,7.7.72,10.69,1.35,7.52,1.45,14.51,2.78,20.44,4.8,2.98,1.02,5.76,2.16,8.36,3.78,2.64,1.56,5.14,3.57,7.47,6.03,4.7,4.89,8.57,11.51,11.54,18.51,6.06,15.12,12.95,30.28,22.08,44.12,4.57,6.9,9.8,13.5,16.17,18.94,3.12,2.69,6.53,5.07,10.18,6.96l2.34-2.09Z"/>
        <path class="st7" d="M283.04,230.16c-3.36-4.03-5.82-8.52-9.73-12.57-3.85-4.07-8.73-7.23-13.68-9.64-4.97-2.46-10.11-4.28-15.25-5.86-5.14-1.58-10.32-2.85-15.5-3.95-20.73-4.38-41.53-6.21-62.25-7.3l-3.72-.2c-1.07-.08-2.18-.16-3.35-.28-2.3-.24-4.6-.54-6.89-.89-4.57-.74-9.12-1.73-13.62-2.99-8.99-2.52-17.81-5.97-26.24-10.4-8.41-4.45-16.52-9.72-23.91-16.08-7.35-6.4-14.14-13.64-18.96-23.08-.24,5.33.91,10.79,2.74,15.95,1.85,5.17,4.42,10.1,7.45,14.71,6.1,9.22,13.97,17.26,22.91,23.88,8.95,6.61,18.96,11.9,29.63,15.52,5.34,1.78,10.82,3.21,16.4,4.15,2.79.48,5.6.85,8.42,1.1,1.39.13,2.85.23,4.35.32l3.99.13c20.41.5,40.79.81,60.91,1.7,10.03.57,20.06,1.14,29.56,3.05,4.75,1,9.27,2.34,13.55,4.64,4.27,2.24,8.45,5.76,13.19,8.11Z"/>
        <path class="st7" d="M286.05,243c-3.37-2.59-6.55-5.33-10.2-7.7-3.6-2.4-7.53-4.47-11.65-6.12-8.25-3.32-17.13-5.05-25.91-5.66-8.8-.63-17.55-.22-26.13.8-4.27.53-8.66,1.22-12.52,1.89-3.77.61-7.69,1.05-11.51,1.49-15.41,1.45-30.74,1.35-45.9-1.07-15.2-2.46-30.05-7.12-44.83-15.83,3.85,7.76,9.98,14.41,16.98,19.83,7.04,5.42,15.04,9.65,23.47,12.63,16.88,6.03,35.2,7.26,52.63,4.97,4.4-.5,8.66-1.31,13.02-2.26,4.25-.91,7.96-1.97,11.86-2.78,3.87-.83,7.72-1.7,11.6-2.35,3.87-.74,7.74-1.29,11.61-1.77,7.76-.89,15.51-1.31,23.34-.64,3.91.34,7.84.95,11.84,1.81,3.99.84,8.08,2.04,12.32,2.75Z"/>
        <path class="st7" d="M290.5,253.58c-2.6-1.56-5.1-3.2-7.97-4.43-2.84-1.28-5.92-2.19-9.07-2.78-6.32-1.15-12.81-.89-18.99.1-6.19,1.01-12.12,2.77-17.79,4.96l-3.92,1.54-3.54,1.29c-2.41.83-4.86,1.58-7.33,2.26-9.91,2.66-20.23,4.37-30.84,5.35-5.32.47-10.69.73-16.18.73-5.52-.03-11.02-.29-17.03-1.49,1.77,2.52,4.08,4.73,6.59,6.56,2.51,1.87,5.23,3.43,8.04,4.79,5.63,2.69,11.65,4.45,17.76,5.51,12.24,2.11,24.97,1.38,37.11-2.12,3.03-.87,6.02-1.91,8.96-3.13,1.49-.61,2.88-1.23,4.39-1.97.81-.38,1.38-.69,2.03-1.02.76-.39,1.23-.68,1.86-1.01,4.74-2.55,9.48-4.97,14.29-7.15,4.81-2.18,9.66-4.07,14.79-5.4,2.57-.68,5.22-1.17,8.03-1.54,2.79-.36,5.82-.5,8.85-1.05Z"/>
        <path class="st7" d="M297.97,262.66c-1.83-.61-3.61-1.27-5.57-1.61-1.94-.38-3.98-.48-6.02-.37-4.09.24-8.06,1.41-11.7,2.96-3.65,1.58-7.02,3.6-10.14,5.84l-1.07.77-1.08.8c-.74.56-1.22.86-1.9,1.3-1.32.85-2.64,1.73-4.02,2.51-5.52,3.14-11.38,5.87-17.56,8.28-3.1,1.18-6.27,2.29-9.56,3.26-3.32.97-6.67,1.83-10.55,2.25,2.95,2.66,6.87,4.06,10.71,4.9,3.88.83,7.85.98,11.77.69,7.84-.61,15.55-3.08,22.4-7.23,1.7-1.07,3.4-2.14,4.98-3.39.78-.61,1.74-1.38,2.38-1.96l1.01-.89.21-.19.11-.11.22-.22.45-.44c2.42-2.32,4.85-4.56,7.35-6.69,2.49-2.13,5.06-4.09,7.88-5.81,1.41-.87,2.91-1.65,4.54-2.38,1.61-.73,3.43-1.37,5.17-2.28Z"/>
        <path class="st7" d="M305.96,273.42c-1.43-.16-2.83-.36-4.3-.27-1.47.04-2.97.32-4.42.76-2.92.89-5.57,2.45-7.9,4.24-2.33,1.8-4.35,3.86-6.15,6.04l-.61.73-.6.77c-.42.53-.68.8-1.06,1.23-.75.82-1.49,1.67-2.28,2.46-3.17,3.2-6.65,6.2-10.36,9.18-1.87,1.47-3.81,2.92-5.85,4.35-2.07,1.43-4.17,2.8-6.81,4.06,2.58,1.5,5.66,1.85,8.57,1.8,2.95-.07,5.82-.67,8.58-1.6,5.51-1.85,10.52-5.12,14.59-9.42.99-1.1,2-2.19,2.87-3.41.42-.58.97-1.35,1.3-1.87l.53-.82c.2-.3.19-.31.29-.48l.22-.39c1.2-2.08,2.4-4.12,3.66-6.11,1.25-1.99,2.56-3.89,4.09-5.71.77-.92,1.62-1.8,2.58-2.69.94-.88,2.06-1.77,3.08-2.84Z"/>
        <path class="st7" d="M313.83,282.88c-1.84-.12-3.76.12-5.56,1-1.78.85-3.29,2.13-4.56,3.5-1.25,1.39-2.28,2.9-3.11,4.46-.09.16-.25.46-.28.5l-.27.54c-.19.37-.29.51-.45.8l-1,1.66c-1.4,2.19-2.92,4.39-4.53,6.72l-2.57,3.58c-.93,1.25-1.86,2.49-3.21,3.87,1.79.82,3.81.78,5.65.48,1.87-.31,3.61-.98,5.23-1.86,3.24-1.76,5.95-4.42,7.86-7.65.48-.81.92-1.65,1.29-2.52.18-.43.42-1.01.54-1.36l.2-.56c.12-.33.11-.39.17-.59l1.12-4.07c.37-1.35.76-2.65,1.27-4.01.26-.68.57-1.36.94-2.1.37-.73.89-1.48,1.27-2.38Z"/>
        <path class="st7" d="M320.49,291.03c-1.28.14-2.41.65-3.42,1.53-.97.87-1.66,1.97-2.15,3.05-.48,1.09-.77,2.21-.93,3.29-.02.1-.04.35-.05.33l-.04.35c-.03.26-.06.28-.08.46l-.17,1c-.26,1.34-.45,2.75-.55,4.37-.06.81-.1,1.66-.14,2.61-.01.99-.08,1.93-.31,3.27,1.36.33,2.6-.11,3.74-.58,1.12-.53,2.06-1.27,2.86-2.12,1.6-1.71,2.61-3.89,2.92-6.25.08-.59.12-1.19.13-1.79,0-.29,0-.73-.04-.94l-.04-.35c-.01-.25-.04-.24-.05-.37-.16-.79-.35-1.55-.56-2.31-.44-1.56-.99-2.85-1.12-5.56Z"/>
      </g>
      <path class="st7" d="M426.23,110.32c-24.24-24.24-56.47-37.59-90.76-37.59s-66.51,13.35-90.76,37.59c-14.36,14.36-24.9,31.53-31.11,50.27,1.1.04,2.18.08,3.23.11l4.7.16c16.61-46.91,61.41-80.61,113.93-80.61,66.62,0,120.82,54.2,120.82,120.82s-54.2,120.82-120.82,120.82c-13.78,0-27.03-2.33-39.38-6.6-.41.1-.82.18-1.23.25-1.16.18-2.18.27-3.18.27h0c-2.1,0-4.04-.4-5.76-1.2l-7.27-3.36.73-.74c-1.57.77-3.18,1.43-4.82,1.99-.62.21-1.24.39-1.86.57,18.96,10.66,40.43,16.34,62.77,16.34,34.28,0,66.51-13.35,90.76-37.59,24.24-24.24,37.59-56.47,37.59-90.76s-13.35-66.51-37.59-90.76Z"/>
      <g>
        <path class="st7" d="M385.28,169.08c.15-1.92-1.79-3.63-4.34-3.82-6.72-.52-10.35.99-13.46,2.45,2.86,1.92,6.21,3.97,12.93,4.48,2.54.2,4.72-1.2,4.87-3.11Z"/>
        <path class="st7" d="M335.47,87.78c-48.86,0-90.5,30.93-106.4,74.28,1.88.07,4.04.16,6.31.31,1.33.09,2.46.18,3.58.29h.08s2.12.25,2.12.25l1.64.25c7.64,1.19,17.66,3.22,27.54,8.46,4.72,2.51,9.28,5.88,13.2,9.75,3.69,3.69,6.91,7.97,9.62,12.75.19.34.37.68.55,1.02,10.28-11.8,20.5-22.67,29.06-29.95,3.95-3.35,14.94-12.36,32.69-14.46,17.35-2.05,41.72,3.03,48.48,11.55,10.64.86,49.49,10.33,30.66,41.75-.06-3.28-1.01-7.15-3.76-7.65-2.48-.45-21.82-2.82-31.07.39-9.25,3.2-27.6,7.23-36.85,41.86-6.38,23.89-15.88,45.19-24.21,53.59,8.38,6.9,37.09,12.82,55.56,5.72,32.68-19.88,54.5-55.82,54.5-96.87,0-62.57-50.73-113.3-113.3-113.3Z"/>
      </g>
    </g>
    <g>
      <g>
        <path class="st3" d="M338,291.96c-.22-.14-.45-.28-.67-.43-3.27-2.15-6.22-4.7-8.88-7.53-5.29-5.73-9.42-12.45-12.95-19.45-3.54-7.01-6.36-14.4-8.89-21.88-2.52-7.53-4.65-15.06-6.62-22.88-2.19-8.23-4.75-16.59-9.39-24.88-2.33-4.11-5.26-8.14-8.83-11.72-3.59-3.54-7.75-6.63-12.11-8.95-8.79-4.66-17.72-6.68-26.04-7.97l-1.64-.25-1.95-.22c-1.19-.12-2.32-.2-3.42-.27-2.19-.14-4.28-.23-6.34-.31l-12.08-.41c-15.84-.51-31.35-1.53-46.54-4.1-15.17-2.53-30-6.59-43.61-13.18-13.58-6.57-25.84-15.9-35.17-28.17-4.7-6.1-8.56-12.93-11.79-20.14-3.18-7.24-5.61-14.91-7.49-22.8.07,16.18,3.65,32.82,11.75,47.76,7.98,15,20.59,27.67,35.08,36.84,14.5,9.28,30.67,15.36,46.96,19.58,8.18,2.07,16.41,3.71,24.66,4.98,8.24,1.25,16.49,2.2,24.64,2.95l12.04,1.04c3.94.37,7.7.72,10.69,1.35,7.52,1.45,14.51,2.78,20.44,4.8,2.98,1.02,5.76,2.16,8.36,3.78,2.64,1.56,5.14,3.57,7.47,6.03,4.7,4.89,8.57,11.51,11.54,18.51,6.06,15.12,12.95,30.28,22.08,44.12,4.57,6.9,9.8,13.5,16.17,18.94,3.12,2.69,6.53,5.07,10.18,6.96l2.34-2.09Z"/>
        <path class="st0" d="M284.58,228.62c-3.36-4.03-5.82-8.52-9.73-12.57-3.85-4.07-8.73-7.23-13.68-9.64-4.97-2.46-10.11-4.28-15.25-5.86-5.14-1.58-10.32-2.85-15.5-3.95-20.73-4.38-41.53-6.21-62.25-7.3l-3.72-.2c-1.07-.08-2.18-.16-3.35-.28-2.3-.24-4.6-.54-6.89-.89-4.57-.74-9.12-1.73-13.62-2.99-8.99-2.52-17.81-5.97-26.24-10.4-8.41-4.45-16.52-9.72-23.91-16.08-7.35-6.4-14.14-13.64-18.96-23.08-.24,5.33.91,10.79,2.74,15.95,1.85,5.17,4.42,10.1,7.45,14.71,6.1,9.22,13.97,17.26,22.91,23.88,8.95,6.61,18.96,11.9,29.63,15.52,5.34,1.78,10.82,3.21,16.4,4.15,2.79.48,5.6.85,8.42,1.1,1.39.13,2.85.23,4.35.32l3.99.13c20.41.5,40.79.81,60.91,1.7,10.03.57,20.06,1.14,29.56,3.05,4.74,1,9.27,2.34,13.55,4.64,4.27,2.24,8.45,5.76,13.19,8.11Z"/>
        <path class="st19" d="M287.59,241.46c-3.37-2.59-6.55-5.33-10.2-7.7-3.6-2.4-7.53-4.47-11.65-6.12-8.25-3.32-17.13-5.05-25.91-5.66-8.8-.63-17.55-.22-26.13.8-4.27.53-8.66,1.22-12.52,1.89-3.77.62-7.69,1.05-11.51,1.49-15.41,1.45-30.74,1.35-45.9-1.07-15.2-2.46-30.05-7.12-44.83-15.83,3.85,7.76,9.98,14.41,16.98,19.83,7.04,5.42,15.04,9.65,23.47,12.63,16.88,6.03,35.2,7.26,52.63,4.97,4.4-.5,8.66-1.31,13.02-2.26,4.25-.91,7.96-1.97,11.86-2.78,3.87-.83,7.72-1.7,11.6-2.35,3.87-.74,7.74-1.29,11.61-1.77,7.76-.89,15.51-1.31,23.34-.64,3.91.34,7.84.95,11.84,1.81,3.99.84,8.08,2.04,12.32,2.75Z"/>
        <path class="st16" d="M292.04,252.04c-2.6-1.56-5.1-3.2-7.97-4.43-2.84-1.28-5.92-2.19-9.07-2.78-6.32-1.15-12.81-.89-18.99.1-6.19,1.01-12.12,2.77-17.79,4.96l-3.92,1.54-3.54,1.29c-2.41.83-4.86,1.58-7.33,2.26-9.91,2.66-20.23,4.37-30.84,5.35-5.32.47-10.69.73-16.18.73-5.52-.03-11.02-.29-17.03-1.49,1.77,2.52,4.08,4.73,6.59,6.56,2.51,1.87,5.23,3.43,8.04,4.79,5.63,2.69,11.65,4.45,17.76,5.51,12.24,2.11,24.97,1.38,37.11-2.12,3.03-.87,6.02-1.91,8.96-3.13,1.49-.61,2.88-1.23,4.39-1.97.81-.38,1.38-.69,2.03-1.02.76-.39,1.23-.68,1.86-1.01,4.74-2.55,9.48-4.97,14.29-7.15,4.81-2.18,9.66-4.07,14.79-5.4,2.57-.68,5.22-1.17,8.03-1.54,2.79-.36,5.82-.5,8.85-1.05Z"/>
        <path class="st18" d="M299.52,261.12c-1.83-.61-3.61-1.27-5.57-1.61-1.94-.38-3.98-.48-6.02-.37-4.09.24-8.06,1.41-11.7,2.96-3.65,1.58-7.02,3.6-10.14,5.84l-1.07.77-1.08.8c-.74.56-1.22.86-1.9,1.3-1.32.85-2.64,1.73-4.02,2.51-5.52,3.14-11.38,5.87-17.56,8.28-3.1,1.18-6.27,2.29-9.56,3.26-3.32.97-6.67,1.83-10.55,2.25,2.95,2.66,6.87,4.06,10.71,4.9,3.88.83,7.85.98,11.77.69,7.84-.61,15.55-3.08,22.4-7.23,1.7-1.07,3.4-2.14,4.98-3.39.78-.61,1.74-1.38,2.38-1.96l1.01-.89.21-.19.11-.11.22-.22.45-.44c2.42-2.32,4.85-4.56,7.35-6.69,2.49-2.13,5.06-4.09,7.88-5.81,1.41-.87,2.91-1.65,4.54-2.38,1.61-.73,3.43-1.37,5.17-2.28Z"/>
        <path class="st22" d="M307.5,271.88c-1.43-.16-2.83-.36-4.3-.27-1.47.04-2.97.32-4.42.76-2.92.89-5.57,2.45-7.9,4.24-2.33,1.8-4.35,3.86-6.15,6.04l-.61.73-.6.77c-.42.53-.68.8-1.06,1.23-.75.82-1.49,1.67-2.28,2.46-3.17,3.2-6.65,6.2-10.36,9.18-1.87,1.47-3.81,2.92-5.85,4.35-2.07,1.43-4.17,2.8-6.81,4.06,2.58,1.5,5.66,1.85,8.57,1.8,2.95-.07,5.82-.67,8.58-1.6,5.51-1.85,10.52-5.12,14.59-9.42.99-1.1,2-2.19,2.87-3.41.42-.58.97-1.35,1.3-1.87l.53-.82c.2-.3.19-.31.29-.48l.22-.39c1.2-2.08,2.4-4.13,3.66-6.11,1.25-1.99,2.56-3.89,4.09-5.71.77-.92,1.62-1.8,2.58-2.69.94-.88,2.06-1.77,3.08-2.84Z"/>
        <path class="st14" d="M315.37,281.33c-1.84-.12-3.76.12-5.56,1-1.78.85-3.29,2.13-4.56,3.5-1.25,1.39-2.28,2.9-3.11,4.46-.09.16-.25.46-.28.5l-.27.54c-.19.37-.29.51-.45.8l-1,1.66c-1.4,2.19-2.92,4.39-4.53,6.72l-2.57,3.58c-.93,1.25-1.86,2.49-3.21,3.87,1.79.82,3.81.78,5.65.48,1.87-.31,3.61-.98,5.23-1.86,3.24-1.76,5.95-4.42,7.86-7.65.48-.81.92-1.65,1.29-2.52.18-.43.42-1.01.54-1.36l.2-.56c.12-.33.11-.39.17-.59l1.12-4.07c.37-1.35.76-2.65,1.27-4.01.26-.68.57-1.36.94-2.1.37-.73.89-1.48,1.27-2.38Z"/>
        <path class="st8" d="M322.03,289.49c-1.28.14-2.41.65-3.42,1.53-.97.87-1.66,1.97-2.15,3.05-.48,1.09-.77,2.21-.93,3.29-.02.1-.04.35-.05.33l-.04.35c-.03.26-.06.28-.08.46l-.17,1c-.26,1.34-.45,2.75-.55,4.37-.06.81-.1,1.66-.14,2.61-.01.99-.08,1.93-.31,3.27,1.36.33,2.6-.11,3.74-.58,1.12-.53,2.06-1.27,2.86-2.12,1.6-1.71,2.61-3.89,2.93-6.25.08-.59.13-1.19.13-1.79,0-.29,0-.73-.04-.94l-.04-.35c-.01-.25-.04-.24-.05-.37-.16-.79-.35-1.55-.56-2.31-.44-1.56-.99-2.85-1.12-5.56Z"/>
      </g>
      <path class="st4" d="M427.77,108.78c-24.24-24.24-56.47-37.59-90.76-37.59s-66.51,13.35-90.76,37.59c-14.36,14.36-24.9,31.53-31.11,50.27,1.1.04,2.18.08,3.23.11l4.7.16c16.61-46.91,61.41-80.61,113.93-80.61,66.62,0,120.82,54.2,120.82,120.82s-54.2,120.82-120.82,120.82c-13.78,0-27.03-2.33-39.38-6.6-.41.1-.82.18-1.23.25-1.16.18-2.18.27-3.18.27h0c-2.1,0-4.04-.4-5.76-1.2l-7.27-3.36.73-.75c-1.57.77-3.18,1.43-4.82,1.99-.62.21-1.24.39-1.86.57,18.96,10.66,40.43,16.34,62.77,16.34,34.28,0,66.51-13.35,90.76-37.59,24.24-24.24,37.59-56.47,37.59-90.76s-13.35-66.51-37.59-90.76Z"/>
      <g>
        <path class="st1" d="M386.82,167.53c.15-1.92-1.79-3.63-4.34-3.82-6.72-.52-10.34.99-13.46,2.45,2.86,1.92,6.21,3.96,12.93,4.48,2.54.2,4.72-1.2,4.87-3.11Z"/>
        <path class="st9" d="M337.01,86.24c-48.86,0-90.5,30.93-106.4,74.28,1.88.07,4.04.16,6.31.31,1.33.09,2.46.18,3.58.29h.07s2.12.25,2.12.25l1.64.25c7.64,1.19,17.66,3.22,27.54,8.46,4.72,2.51,9.28,5.88,13.2,9.75,3.69,3.69,6.91,7.97,9.62,12.75.19.34.37.68.55,1.02,10.28-11.8,20.5-22.67,29.06-29.95,3.95-3.35,14.94-12.36,32.69-14.46,17.35-2.05,41.72,3.03,48.48,11.55,10.64.86,49.49,10.33,30.66,41.75-.06-3.28-1.01-7.15-3.76-7.65-2.48-.45-21.82-2.82-31.07.39-9.25,3.2-27.6,7.23-36.85,41.86-6.38,23.89-15.88,45.19-24.21,53.59,8.38,6.9,37.09,12.82,55.56,5.72,32.68-19.88,54.5-55.82,54.5-96.87,0-62.57-50.73-113.3-113.3-113.3Z"/>
      </g>
    </g>
    <g>
      <path class="st12" d="M296.01,220.81c-2.39-8.97-4.83-16.47-9-23.9-2.31-4.07-5.05-7.72-8.15-10.82-3.3-3.26-7.16-6.11-11.13-8.22-8.66-4.6-17.37-6.39-24.74-7.53l-1.55-.24-1.84-.21c-1-.1-2.04-.18-3.25-.26-2.02-.13-3.96-.21-6.24-.3l-12.06-.41c-12.98-.42-30.08-1.27-47.09-4.16-17.2-2.87-31.83-7.29-44.71-13.53-15.01-7.27-27.35-17.15-36.66-29.38-.93-1.21-1.84-2.46-2.73-3.76.66,1.4,1.36,2.77,2.1,4.12,7.37,13.85,19,26.05,33.66,35.32,12.74,8.15,27.71,14.39,45.8,19.08,7.77,1.97,15.94,3.62,24.26,4.9,7.62,1.15,15.6,2.11,24.39,2.91l12.02,1.04c3.89.36,7.89.74,11.15,1.41l.18.03c7.53,1.45,14.64,2.82,20.78,4.9,2.58.89,5.95,2.16,9.18,4.16,2.96,1.76,5.76,4.02,8.32,6.71,4.7,4.89,8.86,11.54,12.34,19.74l.03.08c4.18,10.43,9.76,23.48,17.17,36.11-1.84-4.32-3.64-9.11-5.51-14.62-2.37-7.08-4.57-14.66-6.7-23.17Z"/>
      <path class="st23" d="M244.72,204.48c-4.6-1.41-9.55-2.67-15.14-3.86-22.19-4.69-44.58-6.32-61.62-7.22l-3.8-.21c-1.08-.08-2.23-.16-3.47-.29-2.33-.24-4.72-.55-7.11-.92-4.78-.77-9.51-1.81-14.09-3.09-9.47-2.65-18.57-6.26-27.05-10.73-9.29-4.92-17.59-10.5-24.68-16.61-3.02-2.63-5.71-5.2-8.11-7.76,1.47,3.34,3.3,6.67,5.46,9.96,5.68,8.59,13.06,16.27,21.92,22.83,8.76,6.47,18.35,11.49,28.51,14.93,5.36,1.79,10.67,3.13,15.76,3.99,2.69.46,5.41.82,8.1,1.06,1.21.11,2.57.21,4.17.31l3.94.13c5.06.12,10.15.24,15.23.35,15.03.34,30.58.68,45.72,1.35,10.04.57,20.37,1.15,30.19,3.13,2.52.53,4.81,1.12,6.92,1.8-1.88-1.26-3.95-2.43-6.2-3.53-4.16-2.06-8.67-3.79-14.66-5.63Z"/>
      <path class="st17" d="M255.45,232.45c2.86,0,5.67.12,8.35.35,1.53.13,3.07.31,4.62.52-1.38-.68-2.78-1.3-4.2-1.87-7.31-2.94-15.61-4.75-24.66-5.37-2.7-.19-5.48-.29-8.29-.29-5.44,0-11.03.35-17.07,1.07-3.73.46-7.98,1.11-12.29,1.86-3.79.62-7.65,1.06-11.38,1.48l-.45.05c-6.83.64-13.53.97-19.91.97-9.33,0-18.42-.7-27.02-2.07-11.02-1.78-21.2-4.62-30.76-8.59,1.84,1.81,3.87,3.58,6.07,5.28,6.56,5.04,14.07,9.09,22.32,12,10.81,3.86,22.57,5.81,34.98,5.81,5.19,0,10.49-.35,15.75-1.04h.07c4.68-.54,9.2-1.46,12.62-2.2,2.03-.44,3.96-.91,5.83-1.37,1.96-.48,3.99-.98,6.05-1.42.68-.15,1.38-.3,2.08-.45,3.14-.68,6.39-1.38,9.64-1.92,3.41-.65,7.06-1.21,11.83-1.8,5.88-.68,11.05-1,15.85-1Z"/>
      <path class="st20" d="M274.12,250.65c1.24-.33,2.53-.63,3.89-.89-1.21-.35-2.46-.65-3.76-.89-5.2-.95-11.13-.91-17.59.12-5.47.89-11.02,2.44-16.96,4.74l-4,1.57-3.61,1.31c-2.38.82-4.86,1.58-7.57,2.34-9.81,2.63-20.12,4.42-31.56,5.48-5.56.5-11.13.75-16.56.75-1.46,0-3-.03-4.61-.09,1.24.74,2.56,1.45,4,2.14,4.94,2.36,10.55,4.1,16.68,5.16,4.31.74,8.73,1.12,13.15,1.12,7.46,0,14.9-1.06,22.11-3.14,2.91-.84,5.77-1.84,8.52-2.98,1.56-.64,2.84-1.22,4.16-1.87.6-.28,1.03-.51,1.46-.73l.5-.26c.39-.2.69-.37.98-.53.27-.15.53-.3.83-.45,5.34-2.88,10.09-5.26,14.51-7.26,5.69-2.58,10.61-4.37,15.45-5.63Z"/>
      <path class="st10" d="M285.74,263.51c-2.49.4-5.15,1.2-7.9,2.37-3.11,1.35-6.18,3.12-9.36,5.4l-2.09,1.53c-.68.51-1.17.83-1.69,1.17l-1.03.67c-1.15.75-2.35,1.52-3.62,2.24-5.5,3.13-11.42,5.93-18.1,8.53-2.94,1.12-5.67,2.07-8.29,2.89,1.76.27,3.63.41,5.56.41h0c1.07,0,2.17-.04,3.3-.13,7.19-.56,14.29-2.85,20.54-6.63,1.64-1.03,3.18-2,4.57-3.11.98-.77,1.75-1.4,2.21-1.81l1.41-1.26.46-.45c2.88-2.75,5.27-4.93,7.56-6.88,2.29-1.96,4.39-3.57,6.47-4.96Z"/>
      <path class="st21" d="M272.39,300.22c-1.13.89-2.23,1.73-3.31,2.53,1.26-.23,2.56-.57,3.92-1.03,4.8-1.61,9.25-4.49,12.87-8.31l.16-.17c.88-.97,1.71-1.89,2.39-2.85.22-.31.86-1.19,1.17-1.68l.61-.95c.03-.06.07-.13.12-.21l.2-.36c1.02-1.77,2.35-4.05,3.77-6.29.68-1.08,1.33-2.07,1.98-2.98-.95.55-1.92,1.19-2.88,1.93-1.9,1.47-3.7,3.24-5.48,5.39l-.57.69-.56.72c-.38.48-.66.79-.9,1.06-.09.1-.19.21-.29.33l-.08.09c-.19.21-.38.41-.56.62-.58.64-1.18,1.31-1.85,1.97-2.98,3.01-6.38,6.02-10.7,9.48Z"/>
      <path class="st5" d="M305.04,296.84c.43-.73.77-1.4,1.04-2.03l.05-.13c.12-.28.31-.76.37-.94l.22-.64c.03-.11.05-.21.09-.33l.98-3.58c-.74.91-1.43,1.94-2.03,3.06l-.08.15c-.08.14-.15.27-.22.4l-.19.38c-.2.4-.35.65-.46.83-.03.05-.06.1-.1.16l-.06.11-1.06,1.74c-1.47,2.31-3.06,4.6-4.59,6.81,2.44-1.39,4.52-3.45,6.02-5.98Z"/>
      <path class="st11" d="M319.73,298.54l-.04-.39s0-.04-.01-.05c-.02-.08-.04-.17-.05-.25,0,.03,0,.06-.01.1v.03c-.02.1-.03.2-.05.3l-.03.24c-.03.28-.07.47-.11.64l-.19,1.12c-.16.83-.28,1.64-.37,2.47.4-.75.66-1.6.79-2.5.06-.42.09-.82.09-1.22v-.1c0-.12,0-.27-.01-.39Z"/>
      <path class="st15" d="M356.52,145.11c2.71-.32,5.62-.48,8.66-.48,15.42,0,34.35,4.18,42.3,12.2,8.86,1.11,28.42,6.18,35.36,19.69.81,1.58,1.42,3.2,1.84,4.87-8.67-51.6-53.65-91.04-107.68-91.04-43.74,0-83.41,26.43-100.46,66.34.21.01.42.03.63.04,1.38.09,2.56.18,3.71.3l2.41.28,1.64.25c7.97,1.24,18.43,3.37,28.85,8.9,5.06,2.7,9.96,6.31,14.16,10.46,2.92,2.93,5.57,6.19,7.92,9.75,10.31-11.62,18.77-20.19,25.77-26.13,10.26-8.7,21.99-13.89,34.87-15.41Z"/>
      <path class="st2" d="M446.2,199.54c0-4.7-.3-9.33-.88-13.87.3,5.83-1.59,12.17-5.65,18.94l-7.38,12.32-.26-14.36c-.04-1.98-.46-3.26-.73-3.73-2.06-.32-9.09-1.14-16.17-1.14s-10.59.77-12.47,1.42c-.58.2-1.2.41-1.85.62-9.08,3.01-24.26,8.05-32.37,38.41-5.82,21.79-14.14,41.17-21.96,51.55,6.39,3.08,17.77,5.8,29.46,5.8,6.88,0,13.11-.97,18.06-2.81,32.69-20.04,52.2-54.83,52.2-93.15Z"/>
    </g>
  </g>
</svg>