<svg xmlns="http://www.w3.org/2000/svg" xmlns:xlink="http://www.w3.org/1999/xlink" id="Calque_1" x="0px" y="0px" viewBox="0 0 425.197 425.197" xml:space="preserve"><g>	<polygon fill="#FFFFFF" points="58.249,245.316 66.86,245.316 66.86,232.247 80.038,232.247 80.038,224.503 66.86,224.503    66.86,217.48 83.834,217.48 83.834,209.43 58.249,209.43  "></polygon>	<polygon fill="#FFFFFF" points="251.389,245.316 260,245.316 260,217.48 270.921,217.48 270.921,209.43 240.622,209.43    240.622,217.48 251.389,217.48  "></polygon>	<rect x="275.7" y="209.429" fill="#FFFFFF" width="8.611" height="35.887"></rect>	<g>		<defs>			<rect id="SVGID_1_" x="6.113" y="6.975" width="413.023" height="413.016"></rect>		</defs>		<clipPath id="SVGID_00000176746045963888854530000010850995990051380897_">			<use xlink:href="#SVGID_1_"></use>		</clipPath>		<path clip-path="url(#SVGID_00000176746045963888854530000010850995990051380897_)" fill="#FFFFFF" d="M383.29,6.978H41.96    c-19.757,0-35.843,16.078-35.843,35.843v341.323c0,19.765,16.086,35.843,35.843,35.843h341.33    c19.764,0,35.843-16.078,35.843-35.843V42.82C419.133,23.056,403.055,6.978,383.29,6.978"></path>		<path clip-path="url(#SVGID_00000176746045963888854530000010850995990051380897_)" fill="#12448D" d="M403.946,42.82v341.33    c0,11.357-9.296,20.653-20.654,20.653H41.963c-11.365,0-20.653-9.296-20.653-20.653V42.82c0-11.365,9.289-20.661,20.653-20.661    h341.33C394.651,22.159,403.946,31.455,403.946,42.82"></path>		<path clip-path="url(#SVGID_00000176746045963888854530000010850995990051380897_)" fill="#E10D19" d="M383.29,8.998H279.426    v4.058v4.043v1.013H383.29c13.623,0,24.704,11.081,24.704,24.711v341.323c0,13.623-11.081,24.711-24.704,24.711H279.426v1.005    v4.051v4.051H383.29c18.65,0,33.818-15.168,33.818-33.818V42.823C417.108,24.173,401.94,8.998,383.29,8.998"></path>		<path clip-path="url(#SVGID_00000176746045963888854530000010850995990051380897_)" fill="#12448D" d="M41.963,18.111H145.82    v-5.056V8.998H41.963c-18.65,0-33.825,15.175-33.825,33.825v341.323c0,18.65,15.175,33.818,33.825,33.818H145.82v-4.051v-5.056    H41.963c-13.623,0-24.711-11.088-24.711-24.711V42.823C17.252,29.192,28.34,18.111,41.963,18.111"></path>		<path clip-path="url(#SVGID_00000176746045963888854530000010850995990051380897_)" fill="#FFFFFF" d="M381.797,296.302H43.453    v-58.31h60.67v0.007h277.673V296.302z M67.458,137.02h8.261l6.841,11.081c2.666,4.327,3.082,5.267,3.133,5.267h0.058    c0.051,0,0.466-0.94,3.133-5.267l6.848-11.081h8.254v36.579h-8.618v-8.946c0-8.662,0.313-12.953,0.255-12.953h-0.051    c-0.044,0-2.972,5.012-3.293,5.544l-4.284,7.314h-4.546l-4.284-7.314c-0.313-0.532-3.235-5.544-3.293-5.544h-0.051    c-0.051,0,0.262,4.291,0.262,12.953v8.946h-8.626V137.02z M151.164,155.306c0,11.022-8.516,19.014-19.021,19.014    c-10.498,0-18.963-7.992-18.963-19.014c0-11.03,8.465-19.021,18.963-19.021C142.648,136.284,151.164,144.276,151.164,155.306     M170.2,165.49v8.108h-8.771V137.02h8.254l7.788,10.447c2.346,3.133,7.933,11.03,7.992,11.03h0.051    c0.051,0-0.051-6.484-0.051-13.121v-8.356h8.779v36.579h-8.254l-7.475-10.192c-3.344-4.604-8.254-11.554-8.312-11.554h-0.051    C170.098,151.853,170.2,157.499,170.2,165.49 M148.286,219.211c3.497,0,6.848-1.77,8.356-4.276l8.888,2.295    c-3.031,6.484-9.565,10.76-17.244,10.76c-10.505,0-18.963-7.985-18.963-19.014c0-11.022,8.458-19.014,18.963-19.014    c7.205,0,13.376,3.861,16.61,9.718l-8.932,2.346c-1.668-2.084-4.808-3.395-7.678-3.395c-6.061,0-9.82,4.342-9.82,10.345    C138.466,215.299,142.589,219.211,148.286,219.211 M208.578,208.975c0,11.03-8.516,19.014-19.021,19.014    c-10.498,0-18.963-7.985-18.963-19.014c0-11.022,8.465-19.014,18.963-19.014C200.062,189.961,208.578,197.953,208.578,208.975     M244.807,205.369h-0.058c-0.044,0-2.972,5.019-3.286,5.544l-4.284,7.314h-4.546l-4.291-7.314    c-0.313-0.525-3.235-5.544-3.286-5.544h-0.058c-0.051,0,0.269,4.291,0.269,12.96v8.939h-8.626V190.69h8.254l6.848,11.081    c2.659,4.335,3.082,5.267,3.133,5.267h0.051c0.051,0,0.474-0.932,3.14-5.267l6.841-11.081h8.254v36.579h-8.618v-8.939    C244.545,209.66,244.858,205.369,244.807,205.369 M291.752,203.227c0,7.839-5.427,12.545-14.417,12.545h-5.165v11.496h-8.779    V190.69h13.944C286.325,190.69,291.752,195.396,291.752,203.227 M297.1,198.893v-8.203h30.882v8.203H316.85v28.376h-8.779v-28.376    H297.1z M356.998,204.903v7.679h-13.951v6.484h18.133v8.203h-26.911V190.69h26.598v8.203h-17.819v6.01H356.998z M386.168,233.614    v-53.655h-160.9v-53.67H39.082v58.033h65.042v49.291H39.082v67.067h347.086V233.614z"></path>		<polygon clip-path="url(#SVGID_00000176746045963888854530000010850995990051380897_)" fill="#FFFFFF" points="55.288,285.434     64.066,285.434 64.066,272.11 77.493,272.11 77.493,264.227 64.066,264.227 64.066,257.059 81.361,257.059 81.361,248.863     55.288,248.863   "></polygon>		<path clip-path="url(#SVGID_00000176746045963888854530000010850995990051380897_)" fill="#FFFFFF" d="M113.417,267.151    c0,6.112-3.919,10.345-9.871,10.345c-5.908,0-9.828-4.233-9.828-10.345c0-6.17,3.919-10.352,9.828-10.352    C109.497,256.799,113.417,260.98,113.417,267.151 M84.575,267.151c0,11.022,8.465,19.014,18.97,19.014    c10.498,0,19.014-7.992,19.014-19.014c0-11.03-8.516-19.021-19.014-19.021C93.04,248.129,84.575,256.121,84.575,267.151"></path>		<path clip-path="url(#SVGID_00000176746045963888854530000010850995990051380897_)" fill="#FFFFFF" d="M138.096,257.061h6.061    c3.14,0,4.393,2.36,4.393,4.342c0,1.982-1.253,4.335-4.393,4.335h-6.061V257.061z M138.096,273.525h4.495l6.79,11.911h9.828    l-8.101-13.485c4.233-1.982,6.578-5.639,6.578-10.549c0-7.526-5.537-12.545-14.731-12.545h-13.638v36.579h8.779V273.525z"></path>		<path clip-path="url(#SVGID_00000176746045963888854530000010850995990051380897_)" fill="#FFFFFF" d="M173.932,276.499    c0-8.669-0.313-12.953-0.262-12.953h0.058c0.044,0,2.972,5.012,3.286,5.529l4.284,7.314h4.546l4.291-7.314    c0.313-0.517,3.235-5.529,3.286-5.529h0.058c0.044,0-0.262,4.284-0.262,12.953v8.939h8.618v-36.579h-8.254l-6.848,11.081    c-2.666,4.335-3.082,5.274-3.133,5.274h-0.051c-0.058,0-0.474-0.94-3.14-5.274l-6.841-11.081h-8.254v36.579h8.618V276.499z"></path>		<path clip-path="url(#SVGID_00000176746045963888854530000010850995990051380897_)" fill="#FFFFFF" d="M223.479,264.905    c0.787-2.091,1.727-5.391,1.778-5.391h0.051c0.051,0,0.991,3.3,1.778,5.391l2.615,7.103h-8.837L223.479,264.905z M218.044,279.686    h14.476l2.091,5.748h9.456l-14.636-36.571h-8.305l-14.629,36.571h9.456L218.044,279.686z"></path>		<polygon clip-path="url(#SVGID_00000176746045963888854530000010850995990051380897_)" fill="#FFFFFF" points="252.132,285.434     260.911,285.434 260.911,257.059 272.042,257.059 272.042,248.863 241.161,248.863 241.161,257.059 252.132,257.059   "></polygon>					<rect x="276.909" y="248.856" clip-path="url(#SVGID_00000176746045963888854530000010850995990051380897_)" fill="#FFFFFF" width="8.778" height="36.571"></rect>		<path clip-path="url(#SVGID_00000176746045963888854530000010850995990051380897_)" fill="#FFFFFF" d="M311.371,256.801    c5.959,0,9.871,4.182,9.871,10.352c0,6.112-3.912,10.345-9.871,10.345c-5.908,0-9.821-4.233-9.821-10.345    C301.55,260.982,305.462,256.801,311.371,256.801 M311.371,286.167c10.498,0,19.021-7.999,19.021-19.014    c0-11.03-8.524-19.029-19.021-19.029c-10.505,0-18.963,7.999-18.963,19.029C292.407,278.168,300.865,286.167,311.371,286.167"></path>		<path clip-path="url(#SVGID_00000176746045963888854530000010850995990051380897_)" fill="#FFFFFF" d="M345.925,277.338    c0-7.999-0.102-13.638-0.051-13.638h0.051c0.051,0,4.968,6.95,8.312,11.547l7.475,10.185h8.247v-36.571h-8.779v8.356    c0,6.637,0.109,13.12,0.058,13.12h-0.058c-0.051,0-5.639-7.89-7.992-11.03l-7.788-10.447h-8.254v36.571h8.779V277.338z"></path>		<path clip-path="url(#SVGID_00000176746045963888854530000010850995990051380897_)" fill="#FFFFFF" d="M179.736,208.976    c0,6.112,3.919,10.345,9.82,10.345c5.959,0,9.879-4.233,9.879-10.345c0-6.163-3.919-10.345-9.879-10.345    C183.656,198.631,179.736,202.813,179.736,208.976"></path>		<path clip-path="url(#SVGID_00000176746045963888854530000010850995990051380897_)" fill="#FFFFFF" d="M272.166,198.896v8.669    h5.019c3.388,0,5.435-1.617,5.435-4.335s-2.047-4.335-5.435-4.335H272.166z"></path>		<path clip-path="url(#SVGID_00000176746045963888854530000010850995990051380897_)" fill="#FFFFFF" d="M122.324,155.306    c0,6.112,3.919,10.345,9.82,10.345c5.959,0,9.879-4.233,9.879-10.345c0-6.17-3.919-10.345-9.879-10.345    C126.243,144.961,122.324,149.135,122.324,155.306"></path>	</g></g></svg>